%TF.GenerationSoftware,KiCad,Pcbnew,7.0.7*%
%TF.CreationDate,2024-05-31T17:05:06+03:00*%
%TF.ProjectId,hecatlon_raid_eye,68656361-746c-46f6-9e5f-726169645f65,rev?*%
%TF.SameCoordinates,Original*%
%TF.FileFunction,Soldermask,Bot*%
%TF.FilePolarity,Negative*%
%FSLAX46Y46*%
G04 Gerber Fmt 4.6, Leading zero omitted, Abs format (unit mm)*
G04 Created by KiCad (PCBNEW 7.0.7) date 2024-05-31 17:05:06*
%MOMM*%
%LPD*%
G01*
G04 APERTURE LIST*
G04 Aperture macros list*
%AMRoundRect*
0 Rectangle with rounded corners*
0 $1 Rounding radius*
0 $2 $3 $4 $5 $6 $7 $8 $9 X,Y pos of 4 corners*
0 Add a 4 corners polygon primitive as box body*
4,1,4,$2,$3,$4,$5,$6,$7,$8,$9,$2,$3,0*
0 Add four circle primitives for the rounded corners*
1,1,$1+$1,$2,$3*
1,1,$1+$1,$4,$5*
1,1,$1+$1,$6,$7*
1,1,$1+$1,$8,$9*
0 Add four rect primitives between the rounded corners*
20,1,$1+$1,$2,$3,$4,$5,0*
20,1,$1+$1,$4,$5,$6,$7,0*
20,1,$1+$1,$6,$7,$8,$9,0*
20,1,$1+$1,$8,$9,$2,$3,0*%
G04 Aperture macros list end*
%ADD10RoundRect,0.080000X2.100000X-0.675000X2.100000X0.675000X-2.100000X0.675000X-2.100000X-0.675000X0*%
%ADD11C,1.360000*%
%ADD12RoundRect,0.330000X-0.750000X0.600000X-0.750000X-0.600000X0.750000X-0.600000X0.750000X0.600000X0*%
%ADD13O,2.160000X1.860000*%
%ADD14O,0.960000X0.960000*%
%ADD15O,1.310000X1.960000*%
%ADD16O,1.610000X2.160000*%
%ADD17RoundRect,0.080000X1.000000X-1.000000X1.000000X1.000000X-1.000000X1.000000X-1.000000X-1.000000X0*%
%ADD18C,2.160000*%
%ADD19RoundRect,0.330000X0.725000X-0.600000X0.725000X0.600000X-0.725000X0.600000X-0.725000X-0.600000X0*%
%ADD20O,2.110000X1.860000*%
%ADD21RoundRect,0.330000X0.600000X0.725000X-0.600000X0.725000X-0.600000X-0.725000X0.600000X-0.725000X0*%
%ADD22O,1.860000X2.110000*%
%ADD23RoundRect,0.280000X0.200000X0.275000X-0.200000X0.275000X-0.200000X-0.275000X0.200000X-0.275000X0*%
%ADD24RoundRect,0.080000X-1.750000X-1.650000X1.750000X-1.650000X1.750000X1.650000X-1.750000X1.650000X0*%
%ADD25C,10.360000*%
%ADD26RoundRect,0.180000X0.637500X0.100000X-0.637500X0.100000X-0.637500X-0.100000X0.637500X-0.100000X0*%
%ADD27C,2.360000*%
%ADD28RoundRect,0.080000X0.350000X0.800000X-0.350000X0.800000X-0.350000X-0.800000X0.350000X-0.800000X0*%
%ADD29RoundRect,0.080000X0.800000X-0.700000X0.800000X0.700000X-0.800000X0.700000X-0.800000X-0.700000X0*%
%ADD30RoundRect,0.080000X0.600000X1.100000X-0.600000X1.100000X-0.600000X-1.100000X0.600000X-1.100000X0*%
G04 APERTURE END LIST*
D10*
%TO.C,AE2*%
X263037500Y-70825000D03*
X263037500Y-65175000D03*
%TD*%
D11*
%TO.C,IC1*%
X251964000Y-84574000D03*
%TD*%
D12*
%TO.C,J6*%
X183800000Y-87650000D03*
D13*
X183800000Y-90150000D03*
%TD*%
D14*
%TO.C,J5*%
X222100000Y-48200000D03*
X217100000Y-48200000D03*
D15*
X223475000Y-45450000D03*
D16*
X223325000Y-49250000D03*
X215875000Y-49250000D03*
D15*
X215725000Y-45450000D03*
%TD*%
D12*
%TO.C,J3*%
X183800000Y-75500000D03*
D13*
X183800000Y-78000000D03*
%TD*%
D17*
%TO.C,BZ1*%
X217900000Y-81100000D03*
D18*
X217900000Y-76100000D03*
%TD*%
D19*
%TO.C,J1*%
X262200000Y-55950000D03*
D20*
X262200000Y-53450000D03*
X262200000Y-50950000D03*
X262200000Y-48450000D03*
%TD*%
D21*
%TO.C,J2*%
X193500000Y-48200000D03*
D22*
X191000000Y-48200000D03*
X188500000Y-48200000D03*
X186000000Y-48200000D03*
%TD*%
D23*
%TO.C,R31*%
X224800000Y-74444000D03*
X223150000Y-74444000D03*
%TD*%
D24*
%TO.C,BT1*%
X243300000Y-84900000D03*
X259100000Y-84900000D03*
D25*
X251200000Y-84900000D03*
%TD*%
D23*
%TO.C,R34*%
X224800000Y-77344000D03*
X223150000Y-77344000D03*
%TD*%
%TO.C,R30*%
X238875000Y-74144000D03*
X237225000Y-74144000D03*
%TD*%
D26*
%TO.C,U5*%
X233812500Y-73394000D03*
X233812500Y-74044000D03*
X233812500Y-74694000D03*
X233812500Y-75344000D03*
X233812500Y-75994000D03*
X233812500Y-76644000D03*
X233812500Y-77294000D03*
X228087500Y-77294000D03*
X228087500Y-76644000D03*
X228087500Y-75994000D03*
X228087500Y-75344000D03*
X228087500Y-74694000D03*
X228087500Y-74044000D03*
X228087500Y-73394000D03*
%TD*%
D27*
%TO.C,J10*%
X235725000Y-91000000D03*
X227725000Y-91000000D03*
D28*
X228475000Y-80490000D03*
X229575000Y-80490000D03*
X230675000Y-80490000D03*
X231775000Y-80490000D03*
X232875000Y-80490000D03*
X233975000Y-80490000D03*
X235075000Y-80490000D03*
X236175000Y-80490000D03*
X237275000Y-80490000D03*
D29*
X238725000Y-81090000D03*
D30*
X238725000Y-90690000D03*
X222975000Y-90690000D03*
D29*
X223875000Y-81090000D03*
%TD*%
D23*
%TO.C,R33*%
X238875000Y-77244000D03*
X237225000Y-77244000D03*
%TD*%
M02*
