%TF.GenerationSoftware,KiCad,Pcbnew,7.0.7*%
%TF.CreationDate,2024-05-31T17:05:06+03:00*%
%TF.ProjectId,hecatlon_raid_eye,68656361-746c-46f6-9e5f-726169645f65,rev?*%
%TF.SameCoordinates,Original*%
%TF.FileFunction,Legend,Bot*%
%TF.FilePolarity,Positive*%
%FSLAX46Y46*%
G04 Gerber Fmt 4.6, Leading zero omitted, Abs format (unit mm)*
G04 Created by KiCad (PCBNEW 7.0.7) date 2024-05-31 17:05:06*
%MOMM*%
%LPD*%
G01*
G04 APERTURE LIST*
%ADD10C,0.150000*%
%ADD11C,0.120000*%
%ADD12C,0.200000*%
%ADD13C,0.350000*%
%ADD14O,0.550000X1.200000*%
%ADD15O,0.850000X1.400000*%
G04 APERTURE END LIST*
D10*
X224617857Y-73468819D02*
X224951190Y-72992628D01*
X225189285Y-73468819D02*
X225189285Y-72468819D01*
X225189285Y-72468819D02*
X224808333Y-72468819D01*
X224808333Y-72468819D02*
X224713095Y-72516438D01*
X224713095Y-72516438D02*
X224665476Y-72564057D01*
X224665476Y-72564057D02*
X224617857Y-72659295D01*
X224617857Y-72659295D02*
X224617857Y-72802152D01*
X224617857Y-72802152D02*
X224665476Y-72897390D01*
X224665476Y-72897390D02*
X224713095Y-72945009D01*
X224713095Y-72945009D02*
X224808333Y-72992628D01*
X224808333Y-72992628D02*
X225189285Y-72992628D01*
X224284523Y-72468819D02*
X223665476Y-72468819D01*
X223665476Y-72468819D02*
X223998809Y-72849771D01*
X223998809Y-72849771D02*
X223855952Y-72849771D01*
X223855952Y-72849771D02*
X223760714Y-72897390D01*
X223760714Y-72897390D02*
X223713095Y-72945009D01*
X223713095Y-72945009D02*
X223665476Y-73040247D01*
X223665476Y-73040247D02*
X223665476Y-73278342D01*
X223665476Y-73278342D02*
X223713095Y-73373580D01*
X223713095Y-73373580D02*
X223760714Y-73421200D01*
X223760714Y-73421200D02*
X223855952Y-73468819D01*
X223855952Y-73468819D02*
X224141666Y-73468819D01*
X224141666Y-73468819D02*
X224236904Y-73421200D01*
X224236904Y-73421200D02*
X224284523Y-73373580D01*
X222713095Y-73468819D02*
X223284523Y-73468819D01*
X222998809Y-73468819D02*
X222998809Y-72468819D01*
X222998809Y-72468819D02*
X223094047Y-72611676D01*
X223094047Y-72611676D02*
X223189285Y-72706914D01*
X223189285Y-72706914D02*
X223284523Y-72754533D01*
X251785714Y-76731009D02*
X251642857Y-76778628D01*
X251642857Y-76778628D02*
X251595238Y-76826247D01*
X251595238Y-76826247D02*
X251547619Y-76921485D01*
X251547619Y-76921485D02*
X251547619Y-77064342D01*
X251547619Y-77064342D02*
X251595238Y-77159580D01*
X251595238Y-77159580D02*
X251642857Y-77207200D01*
X251642857Y-77207200D02*
X251738095Y-77254819D01*
X251738095Y-77254819D02*
X252119047Y-77254819D01*
X252119047Y-77254819D02*
X252119047Y-76254819D01*
X252119047Y-76254819D02*
X251785714Y-76254819D01*
X251785714Y-76254819D02*
X251690476Y-76302438D01*
X251690476Y-76302438D02*
X251642857Y-76350057D01*
X251642857Y-76350057D02*
X251595238Y-76445295D01*
X251595238Y-76445295D02*
X251595238Y-76540533D01*
X251595238Y-76540533D02*
X251642857Y-76635771D01*
X251642857Y-76635771D02*
X251690476Y-76683390D01*
X251690476Y-76683390D02*
X251785714Y-76731009D01*
X251785714Y-76731009D02*
X252119047Y-76731009D01*
X251261904Y-76254819D02*
X250690476Y-76254819D01*
X250976190Y-77254819D02*
X250976190Y-76254819D01*
X249833333Y-77254819D02*
X250404761Y-77254819D01*
X250119047Y-77254819D02*
X250119047Y-76254819D01*
X250119047Y-76254819D02*
X250214285Y-76397676D01*
X250214285Y-76397676D02*
X250309523Y-76492914D01*
X250309523Y-76492914D02*
X250404761Y-76540533D01*
X224617857Y-76368819D02*
X224951190Y-75892628D01*
X225189285Y-76368819D02*
X225189285Y-75368819D01*
X225189285Y-75368819D02*
X224808333Y-75368819D01*
X224808333Y-75368819D02*
X224713095Y-75416438D01*
X224713095Y-75416438D02*
X224665476Y-75464057D01*
X224665476Y-75464057D02*
X224617857Y-75559295D01*
X224617857Y-75559295D02*
X224617857Y-75702152D01*
X224617857Y-75702152D02*
X224665476Y-75797390D01*
X224665476Y-75797390D02*
X224713095Y-75845009D01*
X224713095Y-75845009D02*
X224808333Y-75892628D01*
X224808333Y-75892628D02*
X225189285Y-75892628D01*
X224284523Y-75368819D02*
X223665476Y-75368819D01*
X223665476Y-75368819D02*
X223998809Y-75749771D01*
X223998809Y-75749771D02*
X223855952Y-75749771D01*
X223855952Y-75749771D02*
X223760714Y-75797390D01*
X223760714Y-75797390D02*
X223713095Y-75845009D01*
X223713095Y-75845009D02*
X223665476Y-75940247D01*
X223665476Y-75940247D02*
X223665476Y-76178342D01*
X223665476Y-76178342D02*
X223713095Y-76273580D01*
X223713095Y-76273580D02*
X223760714Y-76321200D01*
X223760714Y-76321200D02*
X223855952Y-76368819D01*
X223855952Y-76368819D02*
X224141666Y-76368819D01*
X224141666Y-76368819D02*
X224236904Y-76321200D01*
X224236904Y-76321200D02*
X224284523Y-76273580D01*
X222808333Y-75702152D02*
X222808333Y-76368819D01*
X223046428Y-75321200D02*
X223284523Y-76035485D01*
X223284523Y-76035485D02*
X222665476Y-76035485D01*
X238692857Y-73168819D02*
X239026190Y-72692628D01*
X239264285Y-73168819D02*
X239264285Y-72168819D01*
X239264285Y-72168819D02*
X238883333Y-72168819D01*
X238883333Y-72168819D02*
X238788095Y-72216438D01*
X238788095Y-72216438D02*
X238740476Y-72264057D01*
X238740476Y-72264057D02*
X238692857Y-72359295D01*
X238692857Y-72359295D02*
X238692857Y-72502152D01*
X238692857Y-72502152D02*
X238740476Y-72597390D01*
X238740476Y-72597390D02*
X238788095Y-72645009D01*
X238788095Y-72645009D02*
X238883333Y-72692628D01*
X238883333Y-72692628D02*
X239264285Y-72692628D01*
X238359523Y-72168819D02*
X237740476Y-72168819D01*
X237740476Y-72168819D02*
X238073809Y-72549771D01*
X238073809Y-72549771D02*
X237930952Y-72549771D01*
X237930952Y-72549771D02*
X237835714Y-72597390D01*
X237835714Y-72597390D02*
X237788095Y-72645009D01*
X237788095Y-72645009D02*
X237740476Y-72740247D01*
X237740476Y-72740247D02*
X237740476Y-72978342D01*
X237740476Y-72978342D02*
X237788095Y-73073580D01*
X237788095Y-73073580D02*
X237835714Y-73121200D01*
X237835714Y-73121200D02*
X237930952Y-73168819D01*
X237930952Y-73168819D02*
X238216666Y-73168819D01*
X238216666Y-73168819D02*
X238311904Y-73121200D01*
X238311904Y-73121200D02*
X238359523Y-73073580D01*
X237121428Y-72168819D02*
X237026190Y-72168819D01*
X237026190Y-72168819D02*
X236930952Y-72216438D01*
X236930952Y-72216438D02*
X236883333Y-72264057D01*
X236883333Y-72264057D02*
X236835714Y-72359295D01*
X236835714Y-72359295D02*
X236788095Y-72549771D01*
X236788095Y-72549771D02*
X236788095Y-72787866D01*
X236788095Y-72787866D02*
X236835714Y-72978342D01*
X236835714Y-72978342D02*
X236883333Y-73073580D01*
X236883333Y-73073580D02*
X236930952Y-73121200D01*
X236930952Y-73121200D02*
X237026190Y-73168819D01*
X237026190Y-73168819D02*
X237121428Y-73168819D01*
X237121428Y-73168819D02*
X237216666Y-73121200D01*
X237216666Y-73121200D02*
X237264285Y-73073580D01*
X237264285Y-73073580D02*
X237311904Y-72978342D01*
X237311904Y-72978342D02*
X237359523Y-72787866D01*
X237359523Y-72787866D02*
X237359523Y-72549771D01*
X237359523Y-72549771D02*
X237311904Y-72359295D01*
X237311904Y-72359295D02*
X237264285Y-72264057D01*
X237264285Y-72264057D02*
X237216666Y-72216438D01*
X237216666Y-72216438D02*
X237121428Y-72168819D01*
X231711904Y-71348819D02*
X231711904Y-72158342D01*
X231711904Y-72158342D02*
X231664285Y-72253580D01*
X231664285Y-72253580D02*
X231616666Y-72301200D01*
X231616666Y-72301200D02*
X231521428Y-72348819D01*
X231521428Y-72348819D02*
X231330952Y-72348819D01*
X231330952Y-72348819D02*
X231235714Y-72301200D01*
X231235714Y-72301200D02*
X231188095Y-72253580D01*
X231188095Y-72253580D02*
X231140476Y-72158342D01*
X231140476Y-72158342D02*
X231140476Y-71348819D01*
X230188095Y-71348819D02*
X230664285Y-71348819D01*
X230664285Y-71348819D02*
X230711904Y-71825009D01*
X230711904Y-71825009D02*
X230664285Y-71777390D01*
X230664285Y-71777390D02*
X230569047Y-71729771D01*
X230569047Y-71729771D02*
X230330952Y-71729771D01*
X230330952Y-71729771D02*
X230235714Y-71777390D01*
X230235714Y-71777390D02*
X230188095Y-71825009D01*
X230188095Y-71825009D02*
X230140476Y-71920247D01*
X230140476Y-71920247D02*
X230140476Y-72158342D01*
X230140476Y-72158342D02*
X230188095Y-72253580D01*
X230188095Y-72253580D02*
X230235714Y-72301200D01*
X230235714Y-72301200D02*
X230330952Y-72348819D01*
X230330952Y-72348819D02*
X230569047Y-72348819D01*
X230569047Y-72348819D02*
X230664285Y-72301200D01*
X230664285Y-72301200D02*
X230711904Y-72253580D01*
X238692857Y-76268819D02*
X239026190Y-75792628D01*
X239264285Y-76268819D02*
X239264285Y-75268819D01*
X239264285Y-75268819D02*
X238883333Y-75268819D01*
X238883333Y-75268819D02*
X238788095Y-75316438D01*
X238788095Y-75316438D02*
X238740476Y-75364057D01*
X238740476Y-75364057D02*
X238692857Y-75459295D01*
X238692857Y-75459295D02*
X238692857Y-75602152D01*
X238692857Y-75602152D02*
X238740476Y-75697390D01*
X238740476Y-75697390D02*
X238788095Y-75745009D01*
X238788095Y-75745009D02*
X238883333Y-75792628D01*
X238883333Y-75792628D02*
X239264285Y-75792628D01*
X238359523Y-75268819D02*
X237740476Y-75268819D01*
X237740476Y-75268819D02*
X238073809Y-75649771D01*
X238073809Y-75649771D02*
X237930952Y-75649771D01*
X237930952Y-75649771D02*
X237835714Y-75697390D01*
X237835714Y-75697390D02*
X237788095Y-75745009D01*
X237788095Y-75745009D02*
X237740476Y-75840247D01*
X237740476Y-75840247D02*
X237740476Y-76078342D01*
X237740476Y-76078342D02*
X237788095Y-76173580D01*
X237788095Y-76173580D02*
X237835714Y-76221200D01*
X237835714Y-76221200D02*
X237930952Y-76268819D01*
X237930952Y-76268819D02*
X238216666Y-76268819D01*
X238216666Y-76268819D02*
X238311904Y-76221200D01*
X238311904Y-76221200D02*
X238359523Y-76173580D01*
X237407142Y-75268819D02*
X236788095Y-75268819D01*
X236788095Y-75268819D02*
X237121428Y-75649771D01*
X237121428Y-75649771D02*
X236978571Y-75649771D01*
X236978571Y-75649771D02*
X236883333Y-75697390D01*
X236883333Y-75697390D02*
X236835714Y-75745009D01*
X236835714Y-75745009D02*
X236788095Y-75840247D01*
X236788095Y-75840247D02*
X236788095Y-76078342D01*
X236788095Y-76078342D02*
X236835714Y-76173580D01*
X236835714Y-76173580D02*
X236883333Y-76221200D01*
X236883333Y-76221200D02*
X236978571Y-76268819D01*
X236978571Y-76268819D02*
X237264285Y-76268819D01*
X237264285Y-76268819D02*
X237359523Y-76221200D01*
X237359523Y-76221200D02*
X237407142Y-76173580D01*
%TO.C,G\u002A\u002A\u002A*%
G36*
X220810011Y-89662099D02*
G01*
X220800532Y-89750416D01*
X220778884Y-89831486D01*
X220743862Y-89876747D01*
X220720323Y-89887473D01*
X220672053Y-89897238D01*
X220595405Y-89904635D01*
X220484609Y-89909929D01*
X220333894Y-89913384D01*
X220137491Y-89915263D01*
X219889629Y-89915830D01*
X219870153Y-89915832D01*
X219622629Y-89915787D01*
X219426064Y-89914457D01*
X219274591Y-89910142D01*
X219162346Y-89901147D01*
X219083463Y-89885773D01*
X219032075Y-89862323D01*
X219002318Y-89829100D01*
X218988325Y-89784406D01*
X218984231Y-89726544D01*
X218984169Y-89653817D01*
X218984169Y-89486535D01*
X219903439Y-89486535D01*
X220822710Y-89486535D01*
X220810011Y-89662099D01*
G37*
G36*
X220822835Y-85054294D02*
G01*
X220989548Y-85055865D01*
X221121724Y-85058586D01*
X221224227Y-85062569D01*
X221301922Y-85067926D01*
X221359674Y-85074769D01*
X221402346Y-85083211D01*
X221434804Y-85093363D01*
X221548857Y-85150651D01*
X221631222Y-85233586D01*
X221690425Y-85356247D01*
X221694367Y-85370590D01*
X221699852Y-85405174D01*
X221704721Y-85457597D01*
X221709000Y-85530673D01*
X221712714Y-85627216D01*
X221715888Y-85750042D01*
X221718547Y-85901963D01*
X221720717Y-86085794D01*
X221722422Y-86304350D01*
X221723688Y-86560445D01*
X221724541Y-86856893D01*
X221725004Y-87196509D01*
X221725105Y-87582106D01*
X221724867Y-88016499D01*
X221724316Y-88502502D01*
X221723478Y-89042929D01*
X221723365Y-89109199D01*
X221722456Y-89628766D01*
X221721575Y-90094498D01*
X221720668Y-90509436D01*
X221719682Y-90876618D01*
X221718565Y-91199084D01*
X221717262Y-91479874D01*
X221715723Y-91722028D01*
X221713892Y-91928584D01*
X221711719Y-92102582D01*
X221709149Y-92247061D01*
X221706130Y-92365062D01*
X221702609Y-92459623D01*
X221698533Y-92533784D01*
X221693848Y-92590585D01*
X221688504Y-92633065D01*
X221682445Y-92664263D01*
X221675620Y-92687219D01*
X221667975Y-92704972D01*
X221659457Y-92720563D01*
X221654749Y-92728354D01*
X221577817Y-92814761D01*
X221473429Y-92885769D01*
X221345295Y-92950807D01*
X219851991Y-92943009D01*
X219782090Y-92942643D01*
X219462258Y-92940881D01*
X219193887Y-92939117D01*
X218972155Y-92937144D01*
X218792240Y-92934757D01*
X218649320Y-92931753D01*
X218538573Y-92927925D01*
X218455176Y-92923070D01*
X218394308Y-92916982D01*
X218351145Y-92909456D01*
X218320867Y-92900287D01*
X218298651Y-92889271D01*
X218279675Y-92876203D01*
X218209815Y-92814572D01*
X218141656Y-92738161D01*
X218136901Y-92731695D01*
X218128795Y-92719001D01*
X218121540Y-92702815D01*
X218115088Y-92680152D01*
X218109392Y-92648024D01*
X218104405Y-92603447D01*
X218100080Y-92543434D01*
X218096370Y-92465000D01*
X218093228Y-92365158D01*
X218090606Y-92240922D01*
X218088458Y-92089307D01*
X218086736Y-91907326D01*
X218085393Y-91691993D01*
X218084382Y-91440323D01*
X218083656Y-91149330D01*
X218083167Y-90816027D01*
X218082870Y-90437428D01*
X218082715Y-90010548D01*
X218082657Y-89532400D01*
X218082650Y-89114478D01*
X218633396Y-89114478D01*
X218646480Y-89508000D01*
X218655398Y-89687983D01*
X218673378Y-89852573D01*
X218702614Y-89977414D01*
X218746346Y-90071792D01*
X218807816Y-90144992D01*
X218890266Y-90206299D01*
X218894765Y-90209088D01*
X218927318Y-90227971D01*
X218961428Y-90242856D01*
X219004056Y-90254310D01*
X219062162Y-90262900D01*
X219142705Y-90269193D01*
X219252646Y-90273756D01*
X219398944Y-90277156D01*
X219588559Y-90279961D01*
X219828451Y-90282737D01*
X219838582Y-90282848D01*
X220138151Y-90284764D01*
X220380742Y-90283435D01*
X220566312Y-90278861D01*
X220694819Y-90271042D01*
X220766220Y-90259981D01*
X220830492Y-90235161D01*
X220949789Y-90158573D01*
X221045563Y-90058123D01*
X221101173Y-89949251D01*
X221101345Y-89948626D01*
X221112618Y-89878698D01*
X221121868Y-89767013D01*
X221128141Y-89628822D01*
X221130488Y-89479380D01*
X221130647Y-89114478D01*
X219882022Y-89114478D01*
X218633396Y-89114478D01*
X218082650Y-89114478D01*
X218082648Y-89000000D01*
X218082650Y-88705101D01*
X218082679Y-88210885D01*
X218630924Y-88210885D01*
X218632148Y-88376807D01*
X218633396Y-88381399D01*
X218675273Y-88535585D01*
X218760761Y-88672821D01*
X218810949Y-88718949D01*
X218932000Y-88789658D01*
X219075162Y-88838608D01*
X219218322Y-88856902D01*
X219228241Y-88856874D01*
X219268695Y-88852606D01*
X219289747Y-88831559D01*
X219297732Y-88780247D01*
X219298986Y-88685184D01*
X219298986Y-88513465D01*
X219211246Y-88513465D01*
X219135807Y-88504644D01*
X219040676Y-88469199D01*
X218977453Y-88416167D01*
X218964982Y-88389845D01*
X218955514Y-88304528D01*
X218972680Y-88212148D01*
X219012789Y-88141409D01*
X219086989Y-88100552D01*
X219195486Y-88084290D01*
X219317662Y-88094710D01*
X219434539Y-88132227D01*
X219436168Y-88133017D01*
X219496636Y-88173152D01*
X219584561Y-88244524D01*
X219688400Y-88337271D01*
X219796610Y-88441533D01*
X219922089Y-88563112D01*
X220057247Y-88678915D01*
X220177624Y-88759069D01*
X220294039Y-88809268D01*
X220417309Y-88835210D01*
X220558253Y-88842592D01*
X220727924Y-88830081D01*
X220885865Y-88782641D01*
X221006493Y-88697398D01*
X221094873Y-88571795D01*
X221143144Y-88429761D01*
X221157109Y-88265779D01*
X221135329Y-88103024D01*
X221080042Y-87957532D01*
X220993485Y-87845336D01*
X220992677Y-87844620D01*
X220880453Y-87776395D01*
X220731952Y-87730771D01*
X220565408Y-87713369D01*
X220415154Y-87712113D01*
X220415154Y-87883831D01*
X220415154Y-88055550D01*
X220568127Y-88055550D01*
X220650199Y-88060888D01*
X220751068Y-88095189D01*
X220808849Y-88163926D01*
X220827278Y-88270198D01*
X220823309Y-88323585D01*
X220785208Y-88414326D01*
X220705105Y-88467504D01*
X220581016Y-88484846D01*
X220495047Y-88479908D01*
X220413531Y-88460608D01*
X220331229Y-88421302D01*
X220238765Y-88356352D01*
X220126766Y-88260122D01*
X219985859Y-88126976D01*
X219978153Y-88119534D01*
X219865298Y-88014807D01*
X219756418Y-87920775D01*
X219663573Y-87847471D01*
X219598822Y-87804929D01*
X219453742Y-87748866D01*
X219269265Y-87720085D01*
X219087648Y-87732980D01*
X218922193Y-87786340D01*
X218786204Y-87878952D01*
X218752333Y-87915210D01*
X218671140Y-88052219D01*
X218630924Y-88210885D01*
X218082679Y-88210885D01*
X218082680Y-88202417D01*
X218082784Y-87752372D01*
X218083010Y-87351978D01*
X218083405Y-86998252D01*
X218084016Y-86688205D01*
X218084890Y-86418853D01*
X218086075Y-86187209D01*
X218087617Y-85990288D01*
X218089564Y-85825103D01*
X218091963Y-85688668D01*
X218094860Y-85577998D01*
X218098304Y-85490106D01*
X218102340Y-85422007D01*
X218107017Y-85370714D01*
X218112382Y-85333242D01*
X218118481Y-85306605D01*
X218125361Y-85287816D01*
X218133071Y-85273889D01*
X218141656Y-85261839D01*
X218203279Y-85191963D01*
X218279669Y-85123797D01*
X218282174Y-85121937D01*
X218301403Y-85109095D01*
X218324545Y-85098295D01*
X218356447Y-85089327D01*
X218401957Y-85081983D01*
X218465923Y-85076052D01*
X218553193Y-85071327D01*
X218668615Y-85067597D01*
X218817037Y-85064653D01*
X219003305Y-85062287D01*
X219232270Y-85060289D01*
X219508777Y-85058450D01*
X219837675Y-85056560D01*
X220066824Y-85055360D01*
X220366338Y-85054154D01*
X220415154Y-85054077D01*
X220616720Y-85053761D01*
X220822835Y-85054294D01*
G37*
D11*
%TO.C,R31*%
X224212258Y-74966500D02*
X223737742Y-74966500D01*
X224212258Y-73921500D02*
X223737742Y-73921500D01*
%TO.C,BT1*%
X244450000Y-82900000D02*
X244450000Y-80800000D01*
X244450000Y-86900000D02*
X244450000Y-88350000D01*
X244450000Y-88350000D02*
X247050000Y-90950000D01*
X247050000Y-90950000D02*
X247050000Y-91750000D01*
X247050000Y-91750000D02*
X255350000Y-91750000D01*
X255350000Y-90950000D02*
X257950000Y-88350000D01*
X255350000Y-91750000D02*
X255350000Y-90950000D01*
X257950000Y-82900000D02*
X257950000Y-80800000D01*
X257950000Y-88350000D02*
X257950000Y-86900000D01*
X245900000Y-79300000D02*
G75*
G03*
X244450000Y-80850000I49999J-1499999D01*
G01*
X246700000Y-79700000D02*
G75*
G03*
X245785385Y-79315840I-790000J-600001D01*
G01*
X256614615Y-79315840D02*
G75*
G03*
X255700000Y-79700000I-124615J-984160D01*
G01*
X257950000Y-80850000D02*
G75*
G03*
X256500000Y-79300000I-1500000J50000D01*
G01*
%TO.C,R34*%
X224212258Y-77866500D02*
X223737742Y-77866500D01*
X224212258Y-76821500D02*
X223737742Y-76821500D01*
%TO.C,R30*%
X238287258Y-74666500D02*
X237812742Y-74666500D01*
X238287258Y-73621500D02*
X237812742Y-73621500D01*
%TO.C,U5*%
X230950000Y-77954000D02*
X233150000Y-77954000D01*
X230950000Y-77954000D02*
X228750000Y-77954000D01*
X230950000Y-72734000D02*
X234550000Y-72734000D01*
X230950000Y-72734000D02*
X228750000Y-72734000D01*
D12*
%TO.C,J10*%
X238100000Y-94400000D02*
X238100000Y-91994000D01*
X238100000Y-82140000D02*
X238100000Y-89255000D01*
X227775000Y-80659000D02*
X225027000Y-80659000D01*
X226715000Y-94400000D02*
X238100000Y-94400000D01*
X225715000Y-95100000D02*
X226715000Y-94400000D01*
X225715000Y-95100000D02*
X223350000Y-95100000D01*
X223350000Y-95100000D02*
X223350000Y-92294000D01*
X223350000Y-82140000D02*
X223350000Y-89255000D01*
X227927000Y-79400000D02*
G75*
G03*
X227927000Y-79400000I-12000J0D01*
G01*
D11*
%TO.C,R33*%
X238287258Y-77766500D02*
X237812742Y-77766500D01*
X238287258Y-76721500D02*
X237812742Y-76721500D01*
%TD*%
D13*
X251964000Y-84574000D03*
X183800000Y-87650000D03*
X183800000Y-90150000D03*
X222100000Y-48200000D03*
X217100000Y-48200000D03*
D14*
X223475000Y-45450000D03*
D15*
X223325000Y-49250000D03*
X215875000Y-49250000D03*
D14*
X215725000Y-45450000D03*
D13*
X183800000Y-75500000D03*
X183800000Y-78000000D03*
X217900000Y-81100000D03*
X217900000Y-76100000D03*
X262200000Y-55950000D03*
X262200000Y-53450000D03*
X262200000Y-50950000D03*
X262200000Y-48450000D03*
X193500000Y-48200000D03*
X191000000Y-48200000D03*
X188500000Y-48200000D03*
X186000000Y-48200000D03*
X235725000Y-91000000D03*
X227725000Y-91000000D03*
M02*
