%TF.GenerationSoftware,KiCad,Pcbnew,7.0.7*%
%TF.CreationDate,2024-05-31T17:05:06+03:00*%
%TF.ProjectId,hecatlon_raid_eye,68656361-746c-46f6-9e5f-726169645f65,rev?*%
%TF.SameCoordinates,Original*%
%TF.FileFunction,Soldermask,Top*%
%TF.FilePolarity,Negative*%
%FSLAX46Y46*%
G04 Gerber Fmt 4.6, Leading zero omitted, Abs format (unit mm)*
G04 Created by KiCad (PCBNEW 7.0.7) date 2024-05-31 17:05:06*
%MOMM*%
%LPD*%
G01*
G04 APERTURE LIST*
G04 Aperture macros list*
%AMRoundRect*
0 Rectangle with rounded corners*
0 $1 Rounding radius*
0 $2 $3 $4 $5 $6 $7 $8 $9 X,Y pos of 4 corners*
0 Add a 4 corners polygon primitive as box body*
4,1,4,$2,$3,$4,$5,$6,$7,$8,$9,$2,$3,0*
0 Add four circle primitives for the rounded corners*
1,1,$1+$1,$2,$3*
1,1,$1+$1,$4,$5*
1,1,$1+$1,$6,$7*
1,1,$1+$1,$8,$9*
0 Add four rect primitives between the rounded corners*
20,1,$1+$1,$2,$3,$4,$5,0*
20,1,$1+$1,$4,$5,$6,$7,0*
20,1,$1+$1,$6,$7,$8,$9,0*
20,1,$1+$1,$8,$9,$2,$3,0*%
G04 Aperture macros list end*
%ADD10RoundRect,0.305000X0.250000X-0.225000X0.250000X0.225000X-0.250000X0.225000X-0.250000X-0.225000X0*%
%ADD11RoundRect,0.280000X-0.200000X-0.275000X0.200000X-0.275000X0.200000X0.275000X-0.200000X0.275000X0*%
%ADD12RoundRect,0.080000X-1.200000X1.000000X-1.200000X-1.000000X1.200000X-1.000000X1.200000X1.000000X0*%
%ADD13RoundRect,0.305000X-0.225000X-0.250000X0.225000X-0.250000X0.225000X0.250000X-0.225000X0.250000X0*%
%ADD14RoundRect,0.305000X0.225000X0.250000X-0.225000X0.250000X-0.225000X-0.250000X0.225000X-0.250000X0*%
%ADD15RoundRect,0.305000X-0.250000X0.225000X-0.250000X-0.225000X0.250000X-0.225000X0.250000X0.225000X0*%
%ADD16RoundRect,0.280000X0.200000X0.275000X-0.200000X0.275000X-0.200000X-0.275000X0.200000X-0.275000X0*%
%ADD17RoundRect,0.323750X-0.243750X-0.456250X0.243750X-0.456250X0.243750X0.456250X-0.243750X0.456250X0*%
%ADD18RoundRect,0.280000X0.275000X-0.200000X0.275000X0.200000X-0.275000X0.200000X-0.275000X-0.200000X0*%
%ADD19RoundRect,0.155000X-0.700000X-0.075000X0.700000X-0.075000X0.700000X0.075000X-0.700000X0.075000X0*%
%ADD20RoundRect,0.155000X-0.075000X-0.700000X0.075000X-0.700000X0.075000X0.700000X-0.075000X0.700000X0*%
%ADD21RoundRect,0.080000X-0.210000X0.700000X-0.210000X-0.700000X0.210000X-0.700000X0.210000X0.700000X0*%
%ADD22RoundRect,0.080000X-0.250000X0.700000X-0.250000X-0.700000X0.250000X-0.700000X0.250000X0.700000X0*%
%ADD23RoundRect,0.080000X-0.865000X1.350000X-0.865000X-1.350000X0.865000X-1.350000X0.865000X1.350000X0*%
%ADD24RoundRect,0.080000X-0.950000X0.650000X-0.950000X-0.650000X0.950000X-0.650000X0.950000X0.650000X0*%
%ADD25RoundRect,0.080000X-0.750000X1.000000X-0.750000X-1.000000X0.750000X-1.000000X0.750000X1.000000X0*%
%ADD26RoundRect,0.080000X-1.900000X1.000000X-1.900000X-1.000000X1.900000X-1.000000X1.900000X1.000000X0*%
%ADD27RoundRect,0.080000X-0.525000X-0.325000X0.525000X-0.325000X0.525000X0.325000X-0.525000X0.325000X0*%
%ADD28RoundRect,0.280000X-0.275000X0.200000X-0.275000X-0.200000X0.275000X-0.200000X0.275000X0.200000X0*%
%ADD29RoundRect,0.080000X1.800000X-0.635000X1.800000X0.635000X-1.800000X0.635000X-1.800000X-0.635000X0*%
%ADD30RoundRect,0.080000X2.100000X-0.675000X2.100000X0.675000X-2.100000X0.675000X-2.100000X-0.675000X0*%
%ADD31RoundRect,0.298750X0.256250X-0.218750X0.256250X0.218750X-0.256250X0.218750X-0.256250X-0.218750X0*%
%ADD32RoundRect,0.330000X-0.262500X-0.450000X0.262500X-0.450000X0.262500X0.450000X-0.262500X0.450000X0*%
%ADD33RoundRect,0.080000X0.337500X-0.127000X0.337500X0.127000X-0.337500X0.127000X-0.337500X-0.127000X0*%
%ADD34RoundRect,0.080000X0.127000X0.337500X-0.127000X0.337500X-0.127000X-0.337500X0.127000X-0.337500X0*%
%ADD35RoundRect,0.330000X-0.450000X-0.425000X0.450000X-0.425000X0.450000X0.425000X-0.450000X0.425000X0*%
%ADD36RoundRect,0.080000X-0.325000X0.525000X-0.325000X-0.525000X0.325000X-0.525000X0.325000X0.525000X0*%
%ADD37RoundRect,0.230000X-0.587500X-0.150000X0.587500X-0.150000X0.587500X0.150000X-0.587500X0.150000X0*%
%ADD38RoundRect,0.080000X-1.000000X-0.450000X1.000000X-0.450000X1.000000X0.450000X-1.000000X0.450000X0*%
%ADD39RoundRect,0.080000X0.450000X-1.000000X0.450000X1.000000X-0.450000X1.000000X-0.450000X-1.000000X0*%
%ADD40RoundRect,0.080000X-2.500000X-2.500000X2.500000X-2.500000X2.500000X2.500000X-2.500000X2.500000X0*%
%ADD41C,1.360000*%
%ADD42RoundRect,0.080000X1.000000X-0.500000X1.000000X0.500000X-1.000000X0.500000X-1.000000X-0.500000X0*%
%ADD43RoundRect,0.330000X-0.750000X0.600000X-0.750000X-0.600000X0.750000X-0.600000X0.750000X0.600000X0*%
%ADD44O,2.160000X1.860000*%
%ADD45RoundRect,0.330000X0.450000X-0.262500X0.450000X0.262500X-0.450000X0.262500X-0.450000X-0.262500X0*%
%ADD46O,0.960000X0.960000*%
%ADD47RoundRect,0.080000X0.225000X0.650000X-0.225000X0.650000X-0.225000X-0.650000X0.225000X-0.650000X0*%
%ADD48O,1.310000X1.960000*%
%ADD49O,1.610000X2.160000*%
%ADD50RoundRect,0.329999X-1.075001X0.512501X-1.075001X-0.512501X1.075001X-0.512501X1.075001X0.512501X0*%
%ADD51RoundRect,0.298750X-0.218750X-0.256250X0.218750X-0.256250X0.218750X0.256250X-0.218750X0.256250X0*%
%ADD52RoundRect,0.080000X-0.525000X-0.500000X0.525000X-0.500000X0.525000X0.500000X-0.525000X0.500000X0*%
%ADD53RoundRect,0.080000X-1.100000X-0.525000X1.100000X-0.525000X1.100000X0.525000X-1.100000X0.525000X0*%
%ADD54RoundRect,0.080000X1.000000X-1.000000X1.000000X1.000000X-1.000000X1.000000X-1.000000X-1.000000X0*%
%ADD55C,2.160000*%
%ADD56RoundRect,0.298750X0.218750X0.256250X-0.218750X0.256250X-0.218750X-0.256250X0.218750X-0.256250X0*%
%ADD57RoundRect,0.330000X0.725000X-0.600000X0.725000X0.600000X-0.725000X0.600000X-0.725000X-0.600000X0*%
%ADD58O,2.110000X1.860000*%
%ADD59RoundRect,0.080000X0.250000X0.175000X-0.250000X0.175000X-0.250000X-0.175000X0.250000X-0.175000X0*%
%ADD60RoundRect,0.330000X0.600000X0.725000X-0.600000X0.725000X-0.600000X-0.725000X0.600000X-0.725000X0*%
%ADD61O,1.860000X2.110000*%
%ADD62RoundRect,0.330000X-0.800000X0.450000X-0.800000X-0.450000X0.800000X-0.450000X0.800000X0.450000X0*%
%ADD63C,2.360000*%
G04 APERTURE END LIST*
D10*
%TO.C,C15*%
X199600000Y-52075000D03*
X199600000Y-50525000D03*
%TD*%
D11*
%TO.C,R6*%
X202775000Y-49700000D03*
X204425000Y-49700000D03*
%TD*%
D12*
%TO.C,Y1*%
X196500000Y-54900000D03*
X196500000Y-58600000D03*
%TD*%
D11*
%TO.C,FB1*%
X223875000Y-55200000D03*
X225525000Y-55200000D03*
%TD*%
D13*
%TO.C,C11*%
X223925000Y-57200000D03*
X225475000Y-57200000D03*
%TD*%
D14*
%TO.C,C19*%
X200400000Y-66750000D03*
X198850000Y-66750000D03*
%TD*%
D11*
%TO.C,R37*%
X253250000Y-60900000D03*
X254900000Y-60900000D03*
%TD*%
D15*
%TO.C,C30*%
X249900000Y-62625000D03*
X249900000Y-64175000D03*
%TD*%
D16*
%TO.C,R36*%
X240025000Y-92100000D03*
X238375000Y-92100000D03*
%TD*%
%TO.C,R14*%
X252600000Y-58100000D03*
X250950000Y-58100000D03*
%TD*%
D17*
%TO.C,D6*%
X204552500Y-82900000D03*
X206427500Y-82900000D03*
%TD*%
D18*
%TO.C,R25*%
X207637500Y-76675000D03*
X207637500Y-75025000D03*
%TD*%
D17*
%TO.C,D4*%
X187062500Y-67025000D03*
X188937500Y-67025000D03*
%TD*%
D11*
%TO.C,R5*%
X257075000Y-50950000D03*
X258725000Y-50950000D03*
%TD*%
D19*
%TO.C,U7*%
X200225000Y-53650000D03*
X200225000Y-54150000D03*
X200225000Y-54650000D03*
X200225000Y-55150000D03*
X200225000Y-55650000D03*
X200225000Y-56150000D03*
X200225000Y-56650000D03*
X200225000Y-57150000D03*
X200225000Y-57650000D03*
X200225000Y-58150000D03*
X200225000Y-58650000D03*
X200225000Y-59150000D03*
X200225000Y-59650000D03*
X200225000Y-60150000D03*
X200225000Y-60650000D03*
X200225000Y-61150000D03*
D20*
X202150000Y-63075000D03*
X202650000Y-63075000D03*
X203150000Y-63075000D03*
X203650000Y-63075000D03*
X204150000Y-63075000D03*
X204650000Y-63075000D03*
X205150000Y-63075000D03*
X205650000Y-63075000D03*
X206150000Y-63075000D03*
X206650000Y-63075000D03*
X207150000Y-63075000D03*
X207650000Y-63075000D03*
X208150000Y-63075000D03*
X208650000Y-63075000D03*
X209150000Y-63075000D03*
X209650000Y-63075000D03*
D19*
X211575000Y-61150000D03*
X211575000Y-60650000D03*
X211575000Y-60150000D03*
X211575000Y-59650000D03*
X211575000Y-59150000D03*
X211575000Y-58650000D03*
X211575000Y-58150000D03*
X211575000Y-57650000D03*
X211575000Y-57150000D03*
X211575000Y-56650000D03*
X211575000Y-56150000D03*
X211575000Y-55650000D03*
X211575000Y-55150000D03*
X211575000Y-54650000D03*
X211575000Y-54150000D03*
X211575000Y-53650000D03*
D20*
X209650000Y-51725000D03*
X209150000Y-51725000D03*
X208650000Y-51725000D03*
X208150000Y-51725000D03*
X207650000Y-51725000D03*
X207150000Y-51725000D03*
X206650000Y-51725000D03*
X206150000Y-51725000D03*
X205650000Y-51725000D03*
X205150000Y-51725000D03*
X204650000Y-51725000D03*
X204150000Y-51725000D03*
X203650000Y-51725000D03*
X203150000Y-51725000D03*
X202650000Y-51725000D03*
X202150000Y-51725000D03*
%TD*%
D13*
%TO.C,C12*%
X211925000Y-51000000D03*
X213475000Y-51000000D03*
%TD*%
D21*
%TO.C,U6*%
X256500000Y-66625000D03*
D22*
X255000000Y-66625000D03*
D21*
X253500000Y-66625000D03*
D23*
X255000000Y-69125000D03*
%TD*%
D24*
%TO.C,Y2*%
X196300000Y-69300000D03*
X196300000Y-74800000D03*
X199500000Y-74800000D03*
X199500000Y-69300000D03*
%TD*%
D25*
%TO.C,U2*%
X199800000Y-85200000D03*
X197500000Y-85200000D03*
D26*
X197500000Y-91500000D03*
D25*
X195200000Y-85200000D03*
%TD*%
D10*
%TO.C,C1*%
X248675000Y-48350000D03*
X248675000Y-46800000D03*
%TD*%
D27*
%TO.C,SW2*%
X202925000Y-45700000D03*
X207075000Y-45700000D03*
X202925000Y-47850000D03*
X207050000Y-47850000D03*
%TD*%
D14*
%TO.C,C9*%
X225475000Y-53200000D03*
X223925000Y-53200000D03*
%TD*%
D28*
%TO.C,R18*%
X220700000Y-51975000D03*
X220700000Y-53625000D03*
%TD*%
D29*
%TO.C,AE2*%
X263237500Y-68000000D03*
D30*
X263037500Y-70825000D03*
X263037500Y-65175000D03*
%TD*%
D28*
%TO.C,R15*%
X217300000Y-51975000D03*
X217300000Y-53625000D03*
%TD*%
D31*
%TO.C,FB3*%
X251600000Y-64187500D03*
X251600000Y-62612500D03*
%TD*%
D18*
%TO.C,R27*%
X204337500Y-76675000D03*
X204337500Y-75025000D03*
%TD*%
D32*
%TO.C,R29*%
X204537500Y-85100000D03*
X206362500Y-85100000D03*
%TD*%
D33*
%TO.C,U4*%
X203637500Y-73050000D03*
D34*
X204550000Y-73187500D03*
X205050000Y-73187500D03*
X205550000Y-73187500D03*
X206050000Y-73187500D03*
D33*
X206962500Y-73050000D03*
X206962500Y-72550000D03*
X206962500Y-72050000D03*
X206962500Y-71550000D03*
X206962500Y-71050000D03*
X206962500Y-70550000D03*
X206962500Y-70050000D03*
X206962500Y-69550000D03*
X206962500Y-69050000D03*
X206962500Y-68550000D03*
D34*
X206050000Y-68412500D03*
X205550000Y-68412500D03*
X205050000Y-68412500D03*
X204550000Y-68412500D03*
D33*
X203637500Y-68550000D03*
X203637500Y-69050000D03*
X203637500Y-69550000D03*
X203637500Y-70050000D03*
X203637500Y-70550000D03*
X203637500Y-71050000D03*
X203637500Y-71550000D03*
X203637500Y-72050000D03*
X203637500Y-72550000D03*
%TD*%
D35*
%TO.C,C20*%
X193650000Y-82400000D03*
X196350000Y-82400000D03*
%TD*%
D32*
%TO.C,R24*%
X200187500Y-78650000D03*
X202012500Y-78650000D03*
%TD*%
D36*
%TO.C,B1*%
X217875000Y-60425000D03*
X217875000Y-64575000D03*
X215725000Y-60425000D03*
X215725000Y-64550000D03*
%TD*%
D37*
%TO.C,Q1*%
X218175000Y-69000000D03*
X218175000Y-70900000D03*
X220050000Y-69950000D03*
%TD*%
D17*
%TO.C,D3*%
X187062500Y-61485000D03*
X188937500Y-61485000D03*
%TD*%
D38*
%TO.C,MOD1*%
X228015000Y-51130000D03*
X228015000Y-52400000D03*
X228015000Y-53670000D03*
X228015000Y-54940000D03*
X228015000Y-56210000D03*
X228015000Y-57480000D03*
X228015000Y-58750000D03*
X228015000Y-60020000D03*
X228015000Y-61290000D03*
X228015000Y-62560000D03*
X228015000Y-63830000D03*
X228015000Y-65100000D03*
X228015000Y-66370000D03*
X228015000Y-67640000D03*
D39*
X230800000Y-68640000D03*
X232070000Y-68640000D03*
X233340000Y-68640000D03*
X234610000Y-68640000D03*
X235880000Y-68640000D03*
X237150000Y-68640000D03*
X238420000Y-68640000D03*
X239690000Y-68640000D03*
X240960000Y-68640000D03*
X242230000Y-68640000D03*
D38*
X245015000Y-67640000D03*
X245015000Y-66370000D03*
X245015000Y-65100000D03*
X245015000Y-63830000D03*
X245015000Y-62560000D03*
X245015000Y-61290000D03*
X245015000Y-60020000D03*
X245015000Y-58750000D03*
X245015000Y-57480000D03*
X245015000Y-56210000D03*
X245015000Y-54940000D03*
X245015000Y-53670000D03*
X245015000Y-52400000D03*
X245015000Y-51130000D03*
D40*
X235515000Y-57630000D03*
%TD*%
D15*
%TO.C,C32*%
X250875000Y-66425000D03*
X250875000Y-67975000D03*
%TD*%
D18*
%TO.C,FB2*%
X239700000Y-80450000D03*
X239700000Y-78800000D03*
%TD*%
D17*
%TO.C,D8*%
X235300000Y-84600000D03*
X237175000Y-84600000D03*
%TD*%
D41*
%TO.C,IC1*%
X251964000Y-84574000D03*
D42*
X243694000Y-78546000D03*
X243694000Y-80046000D03*
X243694000Y-81546000D03*
X243694000Y-83046000D03*
X243694000Y-84546000D03*
X243694000Y-86046000D03*
X243694000Y-87546000D03*
X243694000Y-89046000D03*
X243694000Y-90546000D03*
X243694000Y-92046000D03*
X259694000Y-92046000D03*
X259694000Y-90546000D03*
X259694000Y-89046000D03*
X259694000Y-87546000D03*
X259694000Y-86046000D03*
X259694000Y-84546000D03*
X259694000Y-83046000D03*
X259694000Y-81546000D03*
X259694000Y-80046000D03*
X259694000Y-78546000D03*
%TD*%
D43*
%TO.C,J6*%
X183800000Y-87650000D03*
D44*
X183800000Y-90150000D03*
%TD*%
D14*
%TO.C,C14*%
X215200000Y-53200000D03*
X213650000Y-53200000D03*
%TD*%
D10*
%TO.C,C8*%
X258900000Y-58225000D03*
X258900000Y-56675000D03*
%TD*%
D16*
%TO.C,R13*%
X252525000Y-55300000D03*
X250875000Y-55300000D03*
%TD*%
D14*
%TO.C,C7*%
X197695000Y-61000000D03*
X196145000Y-61000000D03*
%TD*%
D45*
%TO.C,R12*%
X215850000Y-70875000D03*
X215850000Y-69050000D03*
%TD*%
D14*
%TO.C,C21*%
X197175000Y-66750000D03*
X195625000Y-66750000D03*
%TD*%
D10*
%TO.C,C29*%
X237900000Y-80375000D03*
X237900000Y-78825000D03*
%TD*%
D28*
%TO.C,R28*%
X206037500Y-75025000D03*
X206037500Y-76675000D03*
%TD*%
D14*
%TO.C,C17*%
X216475000Y-92600000D03*
X214925000Y-92600000D03*
%TD*%
D46*
%TO.C,J5*%
X222100000Y-48200000D03*
X217100000Y-48200000D03*
D47*
X220900000Y-49300000D03*
X220250000Y-49300000D03*
X219600000Y-49300000D03*
X218950000Y-49300000D03*
X218300000Y-49300000D03*
D48*
X223475000Y-45450000D03*
D49*
X223325000Y-49250000D03*
X215875000Y-49250000D03*
D48*
X215725000Y-45450000D03*
%TD*%
D15*
%TO.C,C13*%
X211400000Y-64025000D03*
X211400000Y-65575000D03*
%TD*%
D10*
%TO.C,C4*%
X209100000Y-47925000D03*
X209100000Y-46375000D03*
%TD*%
D28*
%TO.C,R1*%
X211000000Y-46250000D03*
X211000000Y-47900000D03*
%TD*%
D16*
%TO.C,R9*%
X192525000Y-61485000D03*
X190875000Y-61485000D03*
%TD*%
D14*
%TO.C,C10*%
X225475000Y-59200000D03*
X223925000Y-59200000D03*
%TD*%
D35*
%TO.C,C22*%
X199350000Y-82400000D03*
X202050000Y-82400000D03*
%TD*%
D16*
%TO.C,R35*%
X240625000Y-84600000D03*
X238975000Y-84600000D03*
%TD*%
D43*
%TO.C,J3*%
X183800000Y-75500000D03*
D44*
X183800000Y-78000000D03*
%TD*%
D18*
%TO.C,R2*%
X247300000Y-74225000D03*
X247300000Y-72575000D03*
%TD*%
D13*
%TO.C,C16*%
X214925000Y-90800000D03*
X216475000Y-90800000D03*
%TD*%
D14*
%TO.C,C6*%
X197695000Y-52500000D03*
X196145000Y-52500000D03*
%TD*%
D15*
%TO.C,C28*%
X236100000Y-78825000D03*
X236100000Y-80375000D03*
%TD*%
D10*
%TO.C,C27*%
X209037500Y-72125000D03*
X209037500Y-70575000D03*
%TD*%
D17*
%TO.C,D2*%
X187062500Y-56355000D03*
X188937500Y-56355000D03*
%TD*%
D15*
%TO.C,C2*%
X219700000Y-60425000D03*
X219700000Y-61975000D03*
%TD*%
D16*
%TO.C,R8*%
X208400000Y-66600000D03*
X206750000Y-66600000D03*
%TD*%
D32*
%TO.C,R32*%
X204537500Y-89000000D03*
X206362500Y-89000000D03*
%TD*%
D50*
%TO.C,F1*%
X188500000Y-74412500D03*
X188500000Y-79087500D03*
%TD*%
D17*
%TO.C,D7*%
X204552500Y-91200000D03*
X206427500Y-91200000D03*
%TD*%
D51*
%TO.C,L2*%
X253312500Y-62600000D03*
X254887500Y-62600000D03*
%TD*%
D10*
%TO.C,C5*%
X245600000Y-74175000D03*
X245600000Y-72625000D03*
%TD*%
D52*
%TO.C,AE1*%
X262150000Y-91075000D03*
D53*
X263675000Y-89600000D03*
X263675000Y-92550000D03*
%TD*%
D11*
%TO.C,R10*%
X202950000Y-66600000D03*
X204600000Y-66600000D03*
%TD*%
D16*
%TO.C,R7*%
X192525000Y-56355000D03*
X190875000Y-56355000D03*
%TD*%
D28*
%TO.C,R17*%
X218500000Y-87275000D03*
X218500000Y-88925000D03*
%TD*%
D10*
%TO.C,C31*%
X258675000Y-67875000D03*
X258675000Y-66325000D03*
%TD*%
D54*
%TO.C,BZ1*%
X217900000Y-81100000D03*
D55*
X217900000Y-76100000D03*
%TD*%
D15*
%TO.C,C18*%
X212600000Y-87425000D03*
X212600000Y-88975000D03*
%TD*%
D56*
%TO.C,L3*%
X254887500Y-64300000D03*
X253312500Y-64300000D03*
%TD*%
D15*
%TO.C,C3*%
X250900000Y-72625000D03*
X250900000Y-74175000D03*
%TD*%
D57*
%TO.C,J1*%
X262200000Y-55950000D03*
D58*
X262200000Y-53450000D03*
X262200000Y-50950000D03*
X262200000Y-48450000D03*
%TD*%
D28*
%TO.C,R16*%
X219000000Y-51950000D03*
X219000000Y-53600000D03*
%TD*%
D59*
%TO.C,U3*%
X214775000Y-88975000D03*
X214775000Y-88325000D03*
X214775000Y-87675000D03*
X214775000Y-87025000D03*
X216825000Y-87025000D03*
X216825000Y-87675000D03*
X216825000Y-88325000D03*
X216825000Y-88975000D03*
%TD*%
D60*
%TO.C,J2*%
X193500000Y-48200000D03*
D61*
X191000000Y-48200000D03*
X188500000Y-48200000D03*
X186000000Y-48200000D03*
%TD*%
D16*
%TO.C,R11*%
X192525000Y-67025000D03*
X190875000Y-67025000D03*
%TD*%
D62*
%TO.C,D5*%
X190200000Y-86350000D03*
X190200000Y-90750000D03*
%TD*%
D32*
%TO.C,R20*%
X193687500Y-78550000D03*
X195512500Y-78550000D03*
%TD*%
D27*
%TO.C,SW1*%
X250600000Y-46200000D03*
X254750000Y-46200000D03*
X250600000Y-48350000D03*
X254725000Y-48350000D03*
%TD*%
D11*
%TO.C,R4*%
X257075000Y-53450000D03*
X258725000Y-53450000D03*
%TD*%
D28*
%TO.C,R3*%
X249100000Y-72575000D03*
X249100000Y-74225000D03*
%TD*%
D63*
%TO.C,J10*%
X235725000Y-91000000D03*
X227725000Y-91000000D03*
%TD*%
M02*
