%TF.GenerationSoftware,KiCad,Pcbnew,7.0.7*%
%TF.CreationDate,2024-05-31T17:05:06+03:00*%
%TF.ProjectId,hecatlon_raid_eye,68656361-746c-46f6-9e5f-726169645f65,rev?*%
%TF.SameCoordinates,Original*%
%TF.FileFunction,Copper,L2,Inr*%
%TF.FilePolarity,Positive*%
%FSLAX46Y46*%
G04 Gerber Fmt 4.6, Leading zero omitted, Abs format (unit mm)*
G04 Created by KiCad (PCBNEW 7.0.7) date 2024-05-31 17:05:06*
%MOMM*%
%LPD*%
G01*
G04 APERTURE LIST*
G04 Aperture macros list*
%AMRoundRect*
0 Rectangle with rounded corners*
0 $1 Rounding radius*
0 $2 $3 $4 $5 $6 $7 $8 $9 X,Y pos of 4 corners*
0 Add a 4 corners polygon primitive as box body*
4,1,4,$2,$3,$4,$5,$6,$7,$8,$9,$2,$3,0*
0 Add four circle primitives for the rounded corners*
1,1,$1+$1,$2,$3*
1,1,$1+$1,$4,$5*
1,1,$1+$1,$6,$7*
1,1,$1+$1,$8,$9*
0 Add four rect primitives between the rounded corners*
20,1,$1+$1,$2,$3,$4,$5,0*
20,1,$1+$1,$4,$5,$6,$7,0*
20,1,$1+$1,$6,$7,$8,$9,0*
20,1,$1+$1,$8,$9,$2,$3,0*%
G04 Aperture macros list end*
%TA.AperFunction,ComponentPad*%
%ADD10RoundRect,0.250000X-0.750000X0.600000X-0.750000X-0.600000X0.750000X-0.600000X0.750000X0.600000X0*%
%TD*%
%TA.AperFunction,ComponentPad*%
%ADD11O,2.000000X1.700000*%
%TD*%
%TA.AperFunction,ComponentPad*%
%ADD12O,1.150000X1.800000*%
%TD*%
%TA.AperFunction,ComponentPad*%
%ADD13O,1.450000X2.000000*%
%TD*%
%TA.AperFunction,ComponentPad*%
%ADD14R,2.000000X2.000000*%
%TD*%
%TA.AperFunction,ComponentPad*%
%ADD15C,2.000000*%
%TD*%
%TA.AperFunction,ComponentPad*%
%ADD16RoundRect,0.250000X0.725000X-0.600000X0.725000X0.600000X-0.725000X0.600000X-0.725000X-0.600000X0*%
%TD*%
%TA.AperFunction,ComponentPad*%
%ADD17O,1.950000X1.700000*%
%TD*%
%TA.AperFunction,ComponentPad*%
%ADD18RoundRect,0.250000X0.600000X0.725000X-0.600000X0.725000X-0.600000X-0.725000X0.600000X-0.725000X0*%
%TD*%
%TA.AperFunction,ComponentPad*%
%ADD19O,1.700000X1.950000*%
%TD*%
%ADD20C,0.350000*%
%ADD21O,0.550000X1.200000*%
%ADD22O,0.850000X1.400000*%
G04 APERTURE END LIST*
D10*
%TO.N,Net-(D5-A)*%
%TO.C,J6*%
X183800000Y-87650000D03*
D11*
%TO.N,GND*%
X183800000Y-90150000D03*
%TD*%
D12*
%TO.N,GND*%
%TO.C,J5*%
X223475000Y-45450000D03*
D13*
X223325000Y-49250000D03*
X215875000Y-49250000D03*
D12*
X215725000Y-45450000D03*
%TD*%
D10*
%TO.N,Net-(J3-Pin_1)*%
%TO.C,J3*%
X183800000Y-75500000D03*
D11*
%TO.N,Net-(D5-K)*%
X183800000Y-78000000D03*
%TD*%
D14*
%TO.N,VDD*%
%TO.C,BZ1*%
X217900000Y-81100000D03*
D15*
%TO.N,Net-(BZ1-+)*%
X217900000Y-76100000D03*
%TD*%
D16*
%TO.N,+3.3V*%
%TO.C,J1*%
X262200000Y-55950000D03*
D17*
%TO.N,/UART_RXD0*%
X262200000Y-53450000D03*
%TO.N,/UART_TXD0*%
X262200000Y-50950000D03*
%TO.N,GND*%
X262200000Y-48450000D03*
%TD*%
D18*
%TO.N,+3.3V*%
%TO.C,J2*%
X193500000Y-48200000D03*
D19*
%TO.N,SW_CLK*%
X191000000Y-48200000D03*
%TO.N,SW_DIO*%
X188500000Y-48200000D03*
%TO.N,GND*%
X186000000Y-48200000D03*
%TD*%
D20*
X251964000Y-84574000D03*
X183800000Y-87650000D03*
X183800000Y-90150000D03*
X222100000Y-48200000D03*
X217100000Y-48200000D03*
D21*
X223475000Y-45450000D03*
D22*
X223325000Y-49250000D03*
X215875000Y-49250000D03*
D21*
X215725000Y-45450000D03*
D20*
X183800000Y-75500000D03*
X183800000Y-78000000D03*
X217900000Y-81100000D03*
X217900000Y-76100000D03*
X262200000Y-55950000D03*
X262200000Y-53450000D03*
X262200000Y-50950000D03*
X262200000Y-48450000D03*
X193500000Y-48200000D03*
X191000000Y-48200000D03*
X188500000Y-48200000D03*
X186000000Y-48200000D03*
X235725000Y-91000000D03*
X227725000Y-91000000D03*
M02*
