M48
METRIC,TZ
T1C0.550
T2C0.850
T3C0.950
T4C1.000
%
G90
G05
T3
X186000Y-48200
X188500Y-48200
X191000Y-48200
X193500Y-48200
X262200Y-48450
X262200Y-50950
X262200Y-53450
X262200Y-55950
T4
X183800Y-75500
X183800Y-78000
X183800Y-87650
X183800Y-90150
X217900Y-76100
X217900Y-81100
T1
G00X215725Y-45775
M15
G01X215725Y-45125
M16
G05
G00X223475Y-45775
M15
G01X223475Y-45125
M16
G05
T2
G00X215875Y-49525
M15
G01X215875Y-48975
M16
G05
G00X223325Y-49525
M15
G01X223325Y-48975
M16
G05
T0
M30
