%TF.GenerationSoftware,KiCad,Pcbnew,7.0.7*%
%TF.CreationDate,2024-05-31T17:05:06+03:00*%
%TF.ProjectId,hecatlon_raid_eye,68656361-746c-46f6-9e5f-726169645f65,rev?*%
%TF.SameCoordinates,Original*%
%TF.FileFunction,Copper,L4,Bot*%
%TF.FilePolarity,Positive*%
%FSLAX46Y46*%
G04 Gerber Fmt 4.6, Leading zero omitted, Abs format (unit mm)*
G04 Created by KiCad (PCBNEW 7.0.7) date 2024-05-31 17:05:06*
%MOMM*%
%LPD*%
G01*
G04 APERTURE LIST*
G04 Aperture macros list*
%AMRoundRect*
0 Rectangle with rounded corners*
0 $1 Rounding radius*
0 $2 $3 $4 $5 $6 $7 $8 $9 X,Y pos of 4 corners*
0 Add a 4 corners polygon primitive as box body*
4,1,4,$2,$3,$4,$5,$6,$7,$8,$9,$2,$3,0*
0 Add four circle primitives for the rounded corners*
1,1,$1+$1,$2,$3*
1,1,$1+$1,$4,$5*
1,1,$1+$1,$6,$7*
1,1,$1+$1,$8,$9*
0 Add four rect primitives between the rounded corners*
20,1,$1+$1,$2,$3,$4,$5,0*
20,1,$1+$1,$4,$5,$6,$7,0*
20,1,$1+$1,$6,$7,$8,$9,0*
20,1,$1+$1,$8,$9,$2,$3,0*%
G04 Aperture macros list end*
%TA.AperFunction,SMDPad,CuDef*%
%ADD10R,4.200000X1.350000*%
%TD*%
%TA.AperFunction,ComponentPad*%
%ADD11RoundRect,0.250000X-0.750000X0.600000X-0.750000X-0.600000X0.750000X-0.600000X0.750000X0.600000X0*%
%TD*%
%TA.AperFunction,ComponentPad*%
%ADD12O,2.000000X1.700000*%
%TD*%
%TA.AperFunction,ComponentPad*%
%ADD13O,1.150000X1.800000*%
%TD*%
%TA.AperFunction,ComponentPad*%
%ADD14O,1.450000X2.000000*%
%TD*%
%TA.AperFunction,ComponentPad*%
%ADD15R,2.000000X2.000000*%
%TD*%
%TA.AperFunction,ComponentPad*%
%ADD16C,2.000000*%
%TD*%
%TA.AperFunction,ComponentPad*%
%ADD17RoundRect,0.250000X0.725000X-0.600000X0.725000X0.600000X-0.725000X0.600000X-0.725000X-0.600000X0*%
%TD*%
%TA.AperFunction,ComponentPad*%
%ADD18O,1.950000X1.700000*%
%TD*%
%TA.AperFunction,ComponentPad*%
%ADD19RoundRect,0.250000X0.600000X0.725000X-0.600000X0.725000X-0.600000X-0.725000X0.600000X-0.725000X0*%
%TD*%
%TA.AperFunction,ComponentPad*%
%ADD20O,1.700000X1.950000*%
%TD*%
%TA.AperFunction,SMDPad,CuDef*%
%ADD21RoundRect,0.200000X0.200000X0.275000X-0.200000X0.275000X-0.200000X-0.275000X0.200000X-0.275000X0*%
%TD*%
%TA.AperFunction,SMDPad,CuDef*%
%ADD22R,3.500000X3.300000*%
%TD*%
%TA.AperFunction,SMDPad,CuDef*%
%ADD23C,10.200000*%
%TD*%
%TA.AperFunction,SMDPad,CuDef*%
%ADD24RoundRect,0.100000X0.637500X0.100000X-0.637500X0.100000X-0.637500X-0.100000X0.637500X-0.100000X0*%
%TD*%
%TA.AperFunction,SMDPad,CuDef*%
%ADD25R,0.700000X1.600000*%
%TD*%
%TA.AperFunction,SMDPad,CuDef*%
%ADD26R,1.600000X1.400000*%
%TD*%
%TA.AperFunction,SMDPad,CuDef*%
%ADD27R,1.200000X2.200000*%
%TD*%
%ADD28C,0.350000*%
%ADD29O,0.550000X1.200000*%
%ADD30O,0.850000X1.400000*%
G04 APERTURE END LIST*
D10*
%TO.P,AE2,2,Shield*%
%TO.N,GND*%
X263037500Y-70825000D03*
X263037500Y-65175000D03*
%TD*%
D11*
%TO.P,J6,1,Pin_1*%
%TO.N,Net-(D5-A)*%
X183800000Y-87650000D03*
D12*
%TO.P,J6,2,Pin_2*%
%TO.N,GND*%
X183800000Y-90150000D03*
%TD*%
D13*
%TO.P,J5,6,Shield*%
%TO.N,GND*%
X223475000Y-45450000D03*
D14*
X223325000Y-49250000D03*
X215875000Y-49250000D03*
D13*
X215725000Y-45450000D03*
%TD*%
D11*
%TO.P,J3,1,Pin_1*%
%TO.N,Net-(J3-Pin_1)*%
X183800000Y-75500000D03*
D12*
%TO.P,J3,2,Pin_2*%
%TO.N,Net-(D5-K)*%
X183800000Y-78000000D03*
%TD*%
D15*
%TO.P,BZ1,1,-*%
%TO.N,VDD*%
X217900000Y-81100000D03*
D16*
%TO.P,BZ1,2,+*%
%TO.N,Net-(BZ1-+)*%
X217900000Y-76100000D03*
%TD*%
D17*
%TO.P,J1,1,Pin_1*%
%TO.N,+3.3V*%
X262200000Y-55950000D03*
D18*
%TO.P,J1,2,Pin_2*%
%TO.N,/UART_RXD0*%
X262200000Y-53450000D03*
%TO.P,J1,3,Pin_3*%
%TO.N,/UART_TXD0*%
X262200000Y-50950000D03*
%TO.P,J1,4,Pin_4*%
%TO.N,GND*%
X262200000Y-48450000D03*
%TD*%
D19*
%TO.P,J2,1,Pin_1*%
%TO.N,+3.3V*%
X193500000Y-48200000D03*
D20*
%TO.P,J2,2,Pin_2*%
%TO.N,SW_CLK*%
X191000000Y-48200000D03*
%TO.P,J2,3,Pin_3*%
%TO.N,SW_DIO*%
X188500000Y-48200000D03*
%TO.P,J2,4,Pin_4*%
%TO.N,GND*%
X186000000Y-48200000D03*
%TD*%
D21*
%TO.P,R31,1*%
%TO.N,Net-(U5-4A)*%
X224800000Y-74444000D03*
%TO.P,R31,2*%
%TO.N,/DO_LLS*%
X223150000Y-74444000D03*
%TD*%
D22*
%TO.P,BT1,1,+*%
%TO.N,GPS_VBACKUP*%
X243300000Y-84900000D03*
X259100000Y-84900000D03*
D23*
%TO.P,BT1,2,-*%
%TO.N,GND*%
X251200000Y-84900000D03*
%TD*%
D21*
%TO.P,R34,1*%
%TO.N,Net-(U5-3A)*%
X224800000Y-77344000D03*
%TO.P,R34,2*%
%TO.N,CS*%
X223150000Y-77344000D03*
%TD*%
%TO.P,R30,1*%
%TO.N,MOSI*%
X238875000Y-74144000D03*
%TO.P,R30,2*%
%TO.N,Net-(U5-1A)*%
X237225000Y-74144000D03*
%TD*%
D24*
%TO.P,U5,1,1OE*%
%TO.N,GND*%
X233812500Y-73394000D03*
%TO.P,U5,2,1A*%
%TO.N,Net-(U5-1A)*%
X233812500Y-74044000D03*
%TO.P,U5,3,1Y*%
%TO.N,/DI_LLS*%
X233812500Y-74694000D03*
%TO.P,U5,4,2OE*%
%TO.N,GND*%
X233812500Y-75344000D03*
%TO.P,U5,5,2A*%
%TO.N,Net-(U5-2A)*%
X233812500Y-75994000D03*
%TO.P,U5,6,2Y*%
%TO.N,/SCK_LLS*%
X233812500Y-76644000D03*
%TO.P,U5,7,GND*%
%TO.N,GND*%
X233812500Y-77294000D03*
%TO.P,U5,8,3Y*%
%TO.N,/CS_LLS*%
X228087500Y-77294000D03*
%TO.P,U5,9,3A*%
%TO.N,Net-(U5-3A)*%
X228087500Y-76644000D03*
%TO.P,U5,10,3OE*%
%TO.N,GND*%
X228087500Y-75994000D03*
%TO.P,U5,11,4Y*%
%TO.N,MISO*%
X228087500Y-75344000D03*
%TO.P,U5,12,4A*%
%TO.N,Net-(U5-4A)*%
X228087500Y-74694000D03*
%TO.P,U5,13,4OE*%
%TO.N,GND*%
X228087500Y-74044000D03*
%TO.P,U5,14,VCC*%
%TO.N,+3.3V*%
X228087500Y-73394000D03*
%TD*%
D25*
%TO.P,J10,1,DAT2*%
%TO.N,unconnected-(J10-DAT2-Pad1)*%
X228475000Y-80490000D03*
%TO.P,J10,2,DAT3/CD*%
%TO.N,/CS_LLS*%
X229575000Y-80490000D03*
%TO.P,J10,3,CMD*%
%TO.N,/DI_LLS*%
X230675000Y-80490000D03*
%TO.P,J10,4,VDD*%
%TO.N,+3.3V*%
X231775000Y-80490000D03*
%TO.P,J10,5,CLK*%
%TO.N,/SCK_LLS*%
X232875000Y-80490000D03*
%TO.P,J10,6,VSS*%
%TO.N,GND*%
X233975000Y-80490000D03*
%TO.P,J10,7,DAT0*%
%TO.N,/DO_LLS*%
X235075000Y-80490000D03*
%TO.P,J10,8,DAT1*%
%TO.N,unconnected-(J10-DAT1-Pad8)*%
X236175000Y-80490000D03*
%TO.P,J10,9,SHIELD*%
%TO.N,GND*%
X237275000Y-80490000D03*
D26*
%TO.P,J10,10*%
%TO.N,N/C*%
X238725000Y-81090000D03*
D27*
%TO.P,J10,11*%
X238725000Y-90690000D03*
%TO.P,J10,12*%
X222975000Y-90690000D03*
D26*
%TO.P,J10,13*%
X223875000Y-81090000D03*
%TD*%
D21*
%TO.P,R33,1*%
%TO.N,SCK*%
X238875000Y-77244000D03*
%TO.P,R33,2*%
%TO.N,Net-(U5-2A)*%
X237225000Y-77244000D03*
%TD*%
D28*
X251964000Y-84574000D03*
X183800000Y-87650000D03*
X183800000Y-90150000D03*
X222100000Y-48200000D03*
X217100000Y-48200000D03*
D29*
X223475000Y-45450000D03*
D30*
X223325000Y-49250000D03*
X215875000Y-49250000D03*
D29*
X215725000Y-45450000D03*
D28*
X183800000Y-75500000D03*
X183800000Y-78000000D03*
X217900000Y-81100000D03*
X217900000Y-76100000D03*
X262200000Y-55950000D03*
X262200000Y-53450000D03*
X262200000Y-50950000D03*
X262200000Y-48450000D03*
X193500000Y-48200000D03*
X191000000Y-48200000D03*
X188500000Y-48200000D03*
X186000000Y-48200000D03*
X235725000Y-91000000D03*
X227725000Y-91000000D03*
M02*
