%TF.GenerationSoftware,KiCad,Pcbnew,7.0.7*%
%TF.CreationDate,2024-05-31T17:05:06+03:00*%
%TF.ProjectId,hecatlon_raid_eye,68656361-746c-46f6-9e5f-726169645f65,rev?*%
%TF.SameCoordinates,Original*%
%TF.FileFunction,Copper,L1,Top*%
%TF.FilePolarity,Positive*%
%FSLAX46Y46*%
G04 Gerber Fmt 4.6, Leading zero omitted, Abs format (unit mm)*
G04 Created by KiCad (PCBNEW 7.0.7) date 2024-05-31 17:05:06*
%MOMM*%
%LPD*%
G01*
G04 APERTURE LIST*
G04 Aperture macros list*
%AMRoundRect*
0 Rectangle with rounded corners*
0 $1 Rounding radius*
0 $2 $3 $4 $5 $6 $7 $8 $9 X,Y pos of 4 corners*
0 Add a 4 corners polygon primitive as box body*
4,1,4,$2,$3,$4,$5,$6,$7,$8,$9,$2,$3,0*
0 Add four circle primitives for the rounded corners*
1,1,$1+$1,$2,$3*
1,1,$1+$1,$4,$5*
1,1,$1+$1,$6,$7*
1,1,$1+$1,$8,$9*
0 Add four rect primitives between the rounded corners*
20,1,$1+$1,$2,$3,$4,$5,0*
20,1,$1+$1,$4,$5,$6,$7,0*
20,1,$1+$1,$6,$7,$8,$9,0*
20,1,$1+$1,$8,$9,$2,$3,0*%
G04 Aperture macros list end*
%TA.AperFunction,SMDPad,CuDef*%
%ADD10RoundRect,0.225000X0.250000X-0.225000X0.250000X0.225000X-0.250000X0.225000X-0.250000X-0.225000X0*%
%TD*%
%TA.AperFunction,SMDPad,CuDef*%
%ADD11RoundRect,0.200000X-0.200000X-0.275000X0.200000X-0.275000X0.200000X0.275000X-0.200000X0.275000X0*%
%TD*%
%TA.AperFunction,SMDPad,CuDef*%
%ADD12R,2.400000X2.000000*%
%TD*%
%TA.AperFunction,SMDPad,CuDef*%
%ADD13RoundRect,0.225000X-0.225000X-0.250000X0.225000X-0.250000X0.225000X0.250000X-0.225000X0.250000X0*%
%TD*%
%TA.AperFunction,SMDPad,CuDef*%
%ADD14RoundRect,0.225000X0.225000X0.250000X-0.225000X0.250000X-0.225000X-0.250000X0.225000X-0.250000X0*%
%TD*%
%TA.AperFunction,SMDPad,CuDef*%
%ADD15RoundRect,0.225000X-0.250000X0.225000X-0.250000X-0.225000X0.250000X-0.225000X0.250000X0.225000X0*%
%TD*%
%TA.AperFunction,SMDPad,CuDef*%
%ADD16RoundRect,0.200000X0.200000X0.275000X-0.200000X0.275000X-0.200000X-0.275000X0.200000X-0.275000X0*%
%TD*%
%TA.AperFunction,SMDPad,CuDef*%
%ADD17RoundRect,0.243750X-0.243750X-0.456250X0.243750X-0.456250X0.243750X0.456250X-0.243750X0.456250X0*%
%TD*%
%TA.AperFunction,SMDPad,CuDef*%
%ADD18RoundRect,0.200000X0.275000X-0.200000X0.275000X0.200000X-0.275000X0.200000X-0.275000X-0.200000X0*%
%TD*%
%TA.AperFunction,SMDPad,CuDef*%
%ADD19RoundRect,0.075000X-0.700000X-0.075000X0.700000X-0.075000X0.700000X0.075000X-0.700000X0.075000X0*%
%TD*%
%TA.AperFunction,SMDPad,CuDef*%
%ADD20RoundRect,0.075000X-0.075000X-0.700000X0.075000X-0.700000X0.075000X0.700000X-0.075000X0.700000X0*%
%TD*%
%TA.AperFunction,SMDPad,CuDef*%
%ADD21R,0.420000X1.400000*%
%TD*%
%TA.AperFunction,SMDPad,CuDef*%
%ADD22R,0.500000X1.400000*%
%TD*%
%TA.AperFunction,SMDPad,CuDef*%
%ADD23R,1.730000X2.700000*%
%TD*%
%TA.AperFunction,SMDPad,CuDef*%
%ADD24R,1.900000X1.300000*%
%TD*%
%TA.AperFunction,SMDPad,CuDef*%
%ADD25R,1.500000X2.000000*%
%TD*%
%TA.AperFunction,SMDPad,CuDef*%
%ADD26R,3.800000X2.000000*%
%TD*%
%TA.AperFunction,SMDPad,CuDef*%
%ADD27R,1.050000X0.650000*%
%TD*%
%TA.AperFunction,SMDPad,CuDef*%
%ADD28RoundRect,0.200000X-0.275000X0.200000X-0.275000X-0.200000X0.275000X-0.200000X0.275000X0.200000X0*%
%TD*%
%TA.AperFunction,SMDPad,CuDef*%
%ADD29R,3.600000X1.270000*%
%TD*%
%TA.AperFunction,SMDPad,CuDef*%
%ADD30R,4.200000X1.350000*%
%TD*%
%TA.AperFunction,SMDPad,CuDef*%
%ADD31RoundRect,0.218750X0.256250X-0.218750X0.256250X0.218750X-0.256250X0.218750X-0.256250X-0.218750X0*%
%TD*%
%TA.AperFunction,SMDPad,CuDef*%
%ADD32RoundRect,0.250000X-0.262500X-0.450000X0.262500X-0.450000X0.262500X0.450000X-0.262500X0.450000X0*%
%TD*%
%TA.AperFunction,SMDPad,CuDef*%
%ADD33R,0.675000X0.254000*%
%TD*%
%TA.AperFunction,SMDPad,CuDef*%
%ADD34R,0.254000X0.675000*%
%TD*%
%TA.AperFunction,SMDPad,CuDef*%
%ADD35RoundRect,0.250000X-0.450000X-0.425000X0.450000X-0.425000X0.450000X0.425000X-0.450000X0.425000X0*%
%TD*%
%TA.AperFunction,SMDPad,CuDef*%
%ADD36R,0.650000X1.050000*%
%TD*%
%TA.AperFunction,SMDPad,CuDef*%
%ADD37RoundRect,0.150000X-0.587500X-0.150000X0.587500X-0.150000X0.587500X0.150000X-0.587500X0.150000X0*%
%TD*%
%TA.AperFunction,SMDPad,CuDef*%
%ADD38R,2.000000X0.900000*%
%TD*%
%TA.AperFunction,SMDPad,CuDef*%
%ADD39R,0.900000X2.000000*%
%TD*%
%TA.AperFunction,SMDPad,CuDef*%
%ADD40R,5.000000X5.000000*%
%TD*%
%TA.AperFunction,SMDPad,CuDef*%
%ADD41R,2.000000X1.000000*%
%TD*%
%TA.AperFunction,ComponentPad*%
%ADD42RoundRect,0.250000X-0.750000X0.600000X-0.750000X-0.600000X0.750000X-0.600000X0.750000X0.600000X0*%
%TD*%
%TA.AperFunction,ComponentPad*%
%ADD43O,2.000000X1.700000*%
%TD*%
%TA.AperFunction,SMDPad,CuDef*%
%ADD44RoundRect,0.250000X0.450000X-0.262500X0.450000X0.262500X-0.450000X0.262500X-0.450000X-0.262500X0*%
%TD*%
%TA.AperFunction,SMDPad,CuDef*%
%ADD45R,0.450000X1.300000*%
%TD*%
%TA.AperFunction,ComponentPad*%
%ADD46O,1.150000X1.800000*%
%TD*%
%TA.AperFunction,ComponentPad*%
%ADD47O,1.450000X2.000000*%
%TD*%
%TA.AperFunction,SMDPad,CuDef*%
%ADD48RoundRect,0.249999X-1.075001X0.512501X-1.075001X-0.512501X1.075001X-0.512501X1.075001X0.512501X0*%
%TD*%
%TA.AperFunction,SMDPad,CuDef*%
%ADD49RoundRect,0.218750X-0.218750X-0.256250X0.218750X-0.256250X0.218750X0.256250X-0.218750X0.256250X0*%
%TD*%
%TA.AperFunction,SMDPad,CuDef*%
%ADD50R,1.050000X1.000000*%
%TD*%
%TA.AperFunction,SMDPad,CuDef*%
%ADD51R,2.200000X1.050000*%
%TD*%
%TA.AperFunction,ComponentPad*%
%ADD52R,2.000000X2.000000*%
%TD*%
%TA.AperFunction,ComponentPad*%
%ADD53C,2.000000*%
%TD*%
%TA.AperFunction,SMDPad,CuDef*%
%ADD54RoundRect,0.218750X0.218750X0.256250X-0.218750X0.256250X-0.218750X-0.256250X0.218750X-0.256250X0*%
%TD*%
%TA.AperFunction,ComponentPad*%
%ADD55RoundRect,0.250000X0.725000X-0.600000X0.725000X0.600000X-0.725000X0.600000X-0.725000X-0.600000X0*%
%TD*%
%TA.AperFunction,ComponentPad*%
%ADD56O,1.950000X1.700000*%
%TD*%
%TA.AperFunction,SMDPad,CuDef*%
%ADD57R,0.500000X0.350000*%
%TD*%
%TA.AperFunction,ComponentPad*%
%ADD58RoundRect,0.250000X0.600000X0.725000X-0.600000X0.725000X-0.600000X-0.725000X0.600000X-0.725000X0*%
%TD*%
%TA.AperFunction,ComponentPad*%
%ADD59O,1.700000X1.950000*%
%TD*%
%TA.AperFunction,SMDPad,CuDef*%
%ADD60RoundRect,0.250000X-0.800000X0.450000X-0.800000X-0.450000X0.800000X-0.450000X0.800000X0.450000X0*%
%TD*%
%TA.AperFunction,Conductor*%
%ADD61C,0.200000*%
%TD*%
%ADD62C,0.350000*%
%ADD63O,0.550000X1.200000*%
%ADD64O,0.850000X1.400000*%
G04 APERTURE END LIST*
D10*
%TO.P,C15,1*%
%TO.N,+3.3V*%
X199600000Y-52075000D03*
%TO.P,C15,2*%
%TO.N,GND*%
X199600000Y-50525000D03*
%TD*%
D11*
%TO.P,R6,1*%
%TO.N,GND*%
X202775000Y-49700000D03*
%TO.P,R6,2*%
%TO.N,BOOT0*%
X204425000Y-49700000D03*
%TD*%
D12*
%TO.P,Y1,1,1*%
%TO.N,OSC_IN*%
X196500000Y-54900000D03*
%TO.P,Y1,2,2*%
%TO.N,OSC_OUT*%
X196500000Y-58600000D03*
%TD*%
D11*
%TO.P,FB1,1*%
%TO.N,+3.3V*%
X223875000Y-55200000D03*
%TO.P,FB1,2*%
%TO.N,Net-(MOD1-3V3)*%
X225525000Y-55200000D03*
%TD*%
D13*
%TO.P,C11,1*%
%TO.N,+3.3V*%
X223925000Y-57200000D03*
%TO.P,C11,2*%
%TO.N,GND*%
X225475000Y-57200000D03*
%TD*%
D14*
%TO.P,C19,1*%
%TO.N,Net-(U4-XOUT32)*%
X200400000Y-66750000D03*
%TO.P,C19,2*%
%TO.N,GND*%
X198850000Y-66750000D03*
%TD*%
D11*
%TO.P,R37,1*%
%TO.N,Net-(FB3-Pad2)*%
X253250000Y-60900000D03*
%TO.P,R37,2*%
%TO.N,Net-(L2-Pad2)*%
X254900000Y-60900000D03*
%TD*%
D15*
%TO.P,C30,1*%
%TO.N,GND*%
X249900000Y-62625000D03*
%TO.P,C30,2*%
%TO.N,+3.3V*%
X249900000Y-64175000D03*
%TD*%
D16*
%TO.P,R36,1*%
%TO.N,GPS_TX*%
X240025000Y-92100000D03*
%TO.P,R36,2*%
%TO.N,+3.3V*%
X238375000Y-92100000D03*
%TD*%
%TO.P,R14,1*%
%TO.N,+3.3V*%
X252600000Y-58100000D03*
%TO.P,R14,2*%
%TO.N,I2C1_SDA*%
X250950000Y-58100000D03*
%TD*%
D17*
%TO.P,D6,1,K*%
%TO.N,GND*%
X204552500Y-82900000D03*
%TO.P,D6,2,A*%
%TO.N,Net-(D6-A)*%
X206427500Y-82900000D03*
%TD*%
D18*
%TO.P,R25,1*%
%TO.N,GND*%
X207637500Y-76675000D03*
%TO.P,R25,2*%
%TO.N,Net-(U4-PS0)*%
X207637500Y-75025000D03*
%TD*%
D17*
%TO.P,D4,1,K*%
%TO.N,GND*%
X187062500Y-67025000D03*
%TO.P,D4,2,A*%
%TO.N,Net-(D4-A)*%
X188937500Y-67025000D03*
%TD*%
D11*
%TO.P,R5,1*%
%TO.N,Net-(MOD1-RXD0)*%
X257075000Y-50950000D03*
%TO.P,R5,2*%
%TO.N,/UART_TXD0*%
X258725000Y-50950000D03*
%TD*%
D19*
%TO.P,U7,1,VBAT*%
%TO.N,+3.3V*%
X200225000Y-53650000D03*
%TO.P,U7,2,PC13*%
%TO.N,unconnected-(U7-PC13-Pad2)*%
X200225000Y-54150000D03*
%TO.P,U7,3,PC14*%
%TO.N,unconnected-(U7-PC14-Pad3)*%
X200225000Y-54650000D03*
%TO.P,U7,4,PC15*%
%TO.N,unconnected-(U7-PC15-Pad4)*%
X200225000Y-55150000D03*
%TO.P,U7,5,PH0*%
%TO.N,OSC_IN*%
X200225000Y-55650000D03*
%TO.P,U7,6,PH1*%
%TO.N,OSC_OUT*%
X200225000Y-56150000D03*
%TO.P,U7,7,NRST*%
%TO.N,NRST*%
X200225000Y-56650000D03*
%TO.P,U7,8,PC0*%
%TO.N,unconnected-(U7-PC0-Pad8)*%
X200225000Y-57150000D03*
%TO.P,U7,9,PC1*%
%TO.N,unconnected-(U7-PC1-Pad9)*%
X200225000Y-57650000D03*
%TO.P,U7,10,PC2*%
%TO.N,unconnected-(U7-PC2-Pad10)*%
X200225000Y-58150000D03*
%TO.P,U7,11,PC3*%
%TO.N,unconnected-(U7-PC3-Pad11)*%
X200225000Y-58650000D03*
%TO.P,U7,12,VSSA*%
%TO.N,GND*%
X200225000Y-59150000D03*
%TO.P,U7,13,VDDA*%
%TO.N,+3.3V*%
X200225000Y-59650000D03*
%TO.P,U7,14,PA0*%
%TO.N,LED1*%
X200225000Y-60150000D03*
%TO.P,U7,15,PA1*%
%TO.N,LED2*%
X200225000Y-60650000D03*
%TO.P,U7,16,PA2*%
%TO.N,LED3*%
X200225000Y-61150000D03*
D20*
%TO.P,U7,17,PA3*%
%TO.N,unconnected-(U7-PA3-Pad17)*%
X202150000Y-63075000D03*
%TO.P,U7,18,VSS*%
%TO.N,GND*%
X202650000Y-63075000D03*
%TO.P,U7,19,VDD*%
%TO.N,+3.3V*%
X203150000Y-63075000D03*
%TO.P,U7,20,PA4*%
%TO.N,unconnected-(U7-PA4-Pad20)*%
X203650000Y-63075000D03*
%TO.P,U7,21,PA5*%
%TO.N,unconnected-(U7-PA5-Pad21)*%
X204150000Y-63075000D03*
%TO.P,U7,22,PA6*%
%TO.N,unconnected-(U7-PA6-Pad22)*%
X204650000Y-63075000D03*
%TO.P,U7,23,PA7*%
%TO.N,unconnected-(U7-PA7-Pad23)*%
X205150000Y-63075000D03*
%TO.P,U7,24,PC4*%
%TO.N,unconnected-(U7-PC4-Pad24)*%
X205650000Y-63075000D03*
%TO.P,U7,25,PC5*%
%TO.N,unconnected-(U7-PC5-Pad25)*%
X206150000Y-63075000D03*
%TO.P,U7,26,PB0*%
%TO.N,unconnected-(U7-PB0-Pad26)*%
X206650000Y-63075000D03*
%TO.P,U7,27,PB1*%
%TO.N,unconnected-(U7-PB1-Pad27)*%
X207150000Y-63075000D03*
%TO.P,U7,28,PB2*%
%TO.N,unconnected-(U7-PB2-Pad28)*%
X207650000Y-63075000D03*
%TO.P,U7,29,PB10*%
%TO.N,I2C2_SCL*%
X208150000Y-63075000D03*
%TO.P,U7,30,VCAP_1*%
%TO.N,unconnected-(U7-VCAP_1-Pad30)*%
X208650000Y-63075000D03*
%TO.P,U7,31,VSS*%
%TO.N,GND*%
X209150000Y-63075000D03*
%TO.P,U7,32,VDD*%
%TO.N,+3.3V*%
X209650000Y-63075000D03*
D19*
%TO.P,U7,33,PB12*%
%TO.N,unconnected-(U7-PB12-Pad33)*%
X211575000Y-61150000D03*
%TO.P,U7,34,PB13*%
%TO.N,unconnected-(U7-PB13-Pad34)*%
X211575000Y-60650000D03*
%TO.P,U7,35,PB14*%
%TO.N,unconnected-(U7-PB14-Pad35)*%
X211575000Y-60150000D03*
%TO.P,U7,36,PB15*%
%TO.N,unconnected-(U7-PB15-Pad36)*%
X211575000Y-59650000D03*
%TO.P,U7,37,PC6*%
%TO.N,unconnected-(U7-PC6-Pad37)*%
X211575000Y-59150000D03*
%TO.P,U7,38,PC7*%
%TO.N,unconnected-(U7-PC7-Pad38)*%
X211575000Y-58650000D03*
%TO.P,U7,39,PC8*%
%TO.N,unconnected-(U7-PC8-Pad39)*%
X211575000Y-58150000D03*
%TO.P,U7,40,PC9*%
%TO.N,unconnected-(U7-PC9-Pad40)*%
X211575000Y-57650000D03*
%TO.P,U7,41,PA8*%
%TO.N,GPS_PPS*%
X211575000Y-57150000D03*
%TO.P,U7,42,PA9*%
%TO.N,GPS_TX*%
X211575000Y-56650000D03*
%TO.P,U7,43,PA10*%
%TO.N,GPS_RX*%
X211575000Y-56150000D03*
%TO.P,U7,44,PA11*%
%TO.N,USB-*%
X211575000Y-55650000D03*
%TO.P,U7,45,PA12*%
%TO.N,USB+*%
X211575000Y-55150000D03*
%TO.P,U7,46,PA13*%
%TO.N,SW_DIO*%
X211575000Y-54650000D03*
%TO.P,U7,47,VSS*%
%TO.N,GND*%
X211575000Y-54150000D03*
%TO.P,U7,48,VDD*%
%TO.N,+3.3V*%
X211575000Y-53650000D03*
D20*
%TO.P,U7,49,PA14*%
%TO.N,SW_CLK*%
X209650000Y-51725000D03*
%TO.P,U7,50,PA15*%
%TO.N,unconnected-(U7-PA15-Pad50)*%
X209150000Y-51725000D03*
%TO.P,U7,51,PC10*%
%TO.N,unconnected-(U7-PC10-Pad51)*%
X208650000Y-51725000D03*
%TO.P,U7,52,PC11*%
%TO.N,unconnected-(U7-PC11-Pad52)*%
X208150000Y-51725000D03*
%TO.P,U7,53,PC12*%
%TO.N,I2C2_SDA*%
X207650000Y-51725000D03*
%TO.P,U7,54,PD2*%
%TO.N,unconnected-(U7-PD2-Pad54)*%
X207150000Y-51725000D03*
%TO.P,U7,55,PB3*%
%TO.N,unconnected-(U7-PB3-Pad55)*%
X206650000Y-51725000D03*
%TO.P,U7,56,PB4*%
%TO.N,BNO_RST*%
X206150000Y-51725000D03*
%TO.P,U7,57,PB5*%
%TO.N,BNO_INT*%
X205650000Y-51725000D03*
%TO.P,U7,58,PB6*%
%TO.N,I2C1_SCL*%
X205150000Y-51725000D03*
%TO.P,U7,59,PB7*%
%TO.N,I2C1_SDA*%
X204650000Y-51725000D03*
%TO.P,U7,60,BOOT0*%
%TO.N,BOOT0*%
X204150000Y-51725000D03*
%TO.P,U7,61,PB8*%
%TO.N,unconnected-(U7-PB8-Pad61)*%
X203650000Y-51725000D03*
%TO.P,U7,62,PB9*%
%TO.N,unconnected-(U7-PB9-Pad62)*%
X203150000Y-51725000D03*
%TO.P,U7,63,VSS*%
%TO.N,GND*%
X202650000Y-51725000D03*
%TO.P,U7,64,VDD*%
%TO.N,+3.3V*%
X202150000Y-51725000D03*
%TD*%
D13*
%TO.P,C12,1*%
%TO.N,+3.3V*%
X211925000Y-51000000D03*
%TO.P,C12,2*%
%TO.N,GND*%
X213475000Y-51000000D03*
%TD*%
D21*
%TO.P,U6,1,IN*%
%TO.N,Net-(U6-IN)*%
X256500000Y-66625000D03*
D22*
%TO.P,U6,2,GND*%
%TO.N,GND*%
X255000000Y-66625000D03*
D21*
%TO.P,U6,3,OUT*%
%TO.N,Net-(U6-OUT)*%
X253500000Y-66625000D03*
D23*
%TO.P,U6,4,GND*%
%TO.N,GND*%
X255000000Y-69125000D03*
%TD*%
D24*
%TO.P,Y2,1,1*%
%TO.N,Net-(U4-XIN32)*%
X196300000Y-69300000D03*
%TO.P,Y2,2,2*%
%TO.N,GND*%
X196300000Y-74800000D03*
%TO.P,Y2,3,3*%
X199500000Y-74800000D03*
%TO.P,Y2,4,4*%
%TO.N,Net-(U4-XOUT32)*%
X199500000Y-69300000D03*
%TD*%
D25*
%TO.P,U2,1,GND*%
%TO.N,GND*%
X199800000Y-85200000D03*
%TO.P,U2,2,VO*%
%TO.N,+3.3V*%
X197500000Y-85200000D03*
D26*
X197500000Y-91500000D03*
D25*
%TO.P,U2,3,VI*%
%TO.N,VDD*%
X195200000Y-85200000D03*
%TD*%
D10*
%TO.P,C1,1*%
%TO.N,/IO_0*%
X248675000Y-48350000D03*
%TO.P,C1,2*%
%TO.N,GND*%
X248675000Y-46800000D03*
%TD*%
D27*
%TO.P,SW2,1,1*%
%TO.N,GND*%
X202925000Y-45700000D03*
X207075000Y-45700000D03*
%TO.P,SW2,2,2*%
%TO.N,/EN*%
X202925000Y-47850000D03*
X207050000Y-47850000D03*
%TD*%
D14*
%TO.P,C9,1*%
%TO.N,Net-(MOD1-3V3)*%
X225475000Y-53200000D03*
%TO.P,C9,2*%
%TO.N,GND*%
X223925000Y-53200000D03*
%TD*%
D28*
%TO.P,R18,1*%
%TO.N,Net-(J5-D-)*%
X220700000Y-51975000D03*
%TO.P,R18,2*%
%TO.N,USB-*%
X220700000Y-53625000D03*
%TD*%
D29*
%TO.P,AE2,1,A*%
%TO.N,Net-(AE2-A)*%
X263237500Y-68000000D03*
D30*
%TO.P,AE2,2,Shield*%
%TO.N,GND*%
X263037500Y-70825000D03*
X263037500Y-65175000D03*
%TD*%
D28*
%TO.P,R15,1*%
%TO.N,+3.3V*%
X217300000Y-51975000D03*
%TO.P,R15,2*%
%TO.N,USB+*%
X217300000Y-53625000D03*
%TD*%
D31*
%TO.P,FB3,1*%
%TO.N,+3.3V*%
X251600000Y-64187500D03*
%TO.P,FB3,2*%
%TO.N,Net-(FB3-Pad2)*%
X251600000Y-62612500D03*
%TD*%
D18*
%TO.P,R27,1*%
%TO.N,GND*%
X204337500Y-76675000D03*
%TO.P,R27,2*%
%TO.N,Net-(U4-PS1)*%
X204337500Y-75025000D03*
%TD*%
D32*
%TO.P,R29,1*%
%TO.N,+3.3V*%
X204537500Y-85100000D03*
%TO.P,R29,2*%
%TO.N,Net-(D6-A)*%
X206362500Y-85100000D03*
%TD*%
D33*
%TO.P,U4,1,PIN1*%
%TO.N,unconnected-(U4-PIN1-Pad1)*%
X203637500Y-73050000D03*
D34*
%TO.P,U4,2,GND*%
%TO.N,GND*%
X204550000Y-73187500D03*
%TO.P,U4,3,VDD*%
%TO.N,+3.3V*%
X205050000Y-73187500D03*
%TO.P,U4,4,~{BOOT_LOAD_PIN}*%
X205550000Y-73187500D03*
%TO.P,U4,5,PS1*%
%TO.N,Net-(U4-PS1)*%
X206050000Y-73187500D03*
D33*
%TO.P,U4,6,PS0*%
%TO.N,Net-(U4-PS0)*%
X206962500Y-73050000D03*
%TO.P,U4,7,PIN7*%
%TO.N,unconnected-(U4-PIN7-Pad7)*%
X206962500Y-72550000D03*
%TO.P,U4,8,PIN8*%
%TO.N,unconnected-(U4-PIN8-Pad8)*%
X206962500Y-72050000D03*
%TO.P,U4,9,CAP*%
%TO.N,Net-(U4-CAP)*%
X206962500Y-71550000D03*
%TO.P,U4,10,BL_IND*%
%TO.N,GND*%
X206962500Y-71050000D03*
%TO.P,U4,11,~{RESET}*%
%TO.N,BNO_RST*%
X206962500Y-70550000D03*
%TO.P,U4,12,PIN12*%
%TO.N,unconnected-(U4-PIN12-Pad12)*%
X206962500Y-70050000D03*
%TO.P,U4,13,PIN13*%
%TO.N,unconnected-(U4-PIN13-Pad13)*%
X206962500Y-69550000D03*
%TO.P,U4,14,INT*%
%TO.N,BNO_INT*%
X206962500Y-69050000D03*
%TO.P,U4,15,GNDIO*%
%TO.N,GND*%
X206962500Y-68550000D03*
D34*
%TO.P,U4,16,GNDIO*%
X206050000Y-68412500D03*
%TO.P,U4,17,COM3*%
%TO.N,Net-(U4-COM3)*%
X205550000Y-68412500D03*
%TO.P,U4,18,COM2*%
%TO.N,GND*%
X205050000Y-68412500D03*
%TO.P,U4,19,COM1*%
%TO.N,I2C2_SCL*%
X204550000Y-68412500D03*
D33*
%TO.P,U4,20,COM0*%
%TO.N,I2C2_SDA*%
X203637500Y-68550000D03*
%TO.P,U4,21,PIN21*%
%TO.N,unconnected-(U4-PIN21-Pad21)*%
X203637500Y-69050000D03*
%TO.P,U4,22,PIN22*%
%TO.N,unconnected-(U4-PIN22-Pad22)*%
X203637500Y-69550000D03*
%TO.P,U4,23,PIN23*%
%TO.N,unconnected-(U4-PIN23-Pad23)*%
X203637500Y-70050000D03*
%TO.P,U4,24,PIN24*%
%TO.N,unconnected-(U4-PIN24-Pad24)*%
X203637500Y-70550000D03*
%TO.P,U4,25,GNDIO*%
%TO.N,GND*%
X203637500Y-71050000D03*
%TO.P,U4,26,XOUT32*%
%TO.N,Net-(U4-XOUT32)*%
X203637500Y-71550000D03*
%TO.P,U4,27,XIN32*%
%TO.N,Net-(U4-XIN32)*%
X203637500Y-72050000D03*
%TO.P,U4,28,VDDIO*%
%TO.N,+3.3V*%
X203637500Y-72550000D03*
%TD*%
D35*
%TO.P,C20,1*%
%TO.N,VDD*%
X193650000Y-82400000D03*
%TO.P,C20,2*%
%TO.N,GND*%
X196350000Y-82400000D03*
%TD*%
D32*
%TO.P,R24,1*%
%TO.N,BAT_LEVEL*%
X200187500Y-78650000D03*
%TO.P,R24,2*%
%TO.N,GND*%
X202012500Y-78650000D03*
%TD*%
D36*
%TO.P,B1,1,2*%
%TO.N,NRST*%
X217875000Y-60425000D03*
X217875000Y-64575000D03*
%TO.P,B1,2,K*%
%TO.N,GND*%
X215725000Y-60425000D03*
X215725000Y-64550000D03*
%TD*%
D37*
%TO.P,Q1,1,B*%
%TO.N,Net-(Q1-B)*%
X218175000Y-69000000D03*
%TO.P,Q1,2,E*%
%TO.N,GND*%
X218175000Y-70900000D03*
%TO.P,Q1,3,C*%
%TO.N,Net-(BZ1-+)*%
X220050000Y-69950000D03*
%TD*%
D17*
%TO.P,D3,1,K*%
%TO.N,GND*%
X187062500Y-61485000D03*
%TO.P,D3,2,A*%
%TO.N,Net-(D3-A)*%
X188937500Y-61485000D03*
%TD*%
D38*
%TO.P,MOD1,1,GND*%
%TO.N,GND*%
X228015000Y-51130000D03*
%TO.P,MOD1,2,3V3*%
%TO.N,Net-(MOD1-3V3)*%
X228015000Y-52400000D03*
%TO.P,MOD1,3,EN*%
%TO.N,/EN*%
X228015000Y-53670000D03*
%TO.P,MOD1,4,SENSOR_VP*%
%TO.N,unconnected-(MOD1-SENSOR_VP-Pad4)*%
X228015000Y-54940000D03*
%TO.P,MOD1,5,SENSOR_VN*%
%TO.N,unconnected-(MOD1-SENSOR_VN-Pad5)*%
X228015000Y-56210000D03*
%TO.P,MOD1,6,IO34*%
%TO.N,unconnected-(MOD1-IO34-Pad6)*%
X228015000Y-57480000D03*
%TO.P,MOD1,7,IO35*%
%TO.N,BUZZER*%
X228015000Y-58750000D03*
%TO.P,MOD1,8,IO32*%
%TO.N,unconnected-(MOD1-IO32-Pad8)*%
X228015000Y-60020000D03*
%TO.P,MOD1,9,IO33*%
%TO.N,unconnected-(MOD1-IO33-Pad9)*%
X228015000Y-61290000D03*
%TO.P,MOD1,10,IO25*%
%TO.N,unconnected-(MOD1-IO25-Pad10)*%
X228015000Y-62560000D03*
%TO.P,MOD1,11,IO26*%
%TO.N,unconnected-(MOD1-IO26-Pad11)*%
X228015000Y-63830000D03*
%TO.P,MOD1,12,IO27*%
%TO.N,unconnected-(MOD1-IO27-Pad12)*%
X228015000Y-65100000D03*
%TO.P,MOD1,13,IO14*%
%TO.N,unconnected-(MOD1-IO14-Pad13)*%
X228015000Y-66370000D03*
%TO.P,MOD1,14,IO12*%
%TO.N,BAT_LEVEL*%
X228015000Y-67640000D03*
D39*
%TO.P,MOD1,15,GND*%
%TO.N,GND*%
X230800000Y-68640000D03*
%TO.P,MOD1,16,IO13*%
%TO.N,unconnected-(MOD1-IO13-Pad16)*%
X232070000Y-68640000D03*
%TO.P,MOD1,17,SHD/SD2*%
%TO.N,unconnected-(MOD1-SHD{slash}SD2-Pad17)*%
X233340000Y-68640000D03*
%TO.P,MOD1,18,SWP/SD3*%
%TO.N,unconnected-(MOD1-SWP{slash}SD3-Pad18)*%
X234610000Y-68640000D03*
%TO.P,MOD1,19,SCS/CMD*%
%TO.N,unconnected-(MOD1-SCS{slash}CMD-Pad19)*%
X235880000Y-68640000D03*
%TO.P,MOD1,20,SCK/CLK*%
%TO.N,unconnected-(MOD1-SCK{slash}CLK-Pad20)*%
X237150000Y-68640000D03*
%TO.P,MOD1,21,SDO/SD0*%
%TO.N,unconnected-(MOD1-SDO{slash}SD0-Pad21)*%
X238420000Y-68640000D03*
%TO.P,MOD1,22,SDI/SD1*%
%TO.N,unconnected-(MOD1-SDI{slash}SD1-Pad22)*%
X239690000Y-68640000D03*
%TO.P,MOD1,23,IO15*%
%TO.N,unconnected-(MOD1-IO15-Pad23)*%
X240960000Y-68640000D03*
%TO.P,MOD1,24,IO2*%
%TO.N,SGN_FILTER*%
X242230000Y-68640000D03*
D38*
%TO.P,MOD1,25,IO0*%
%TO.N,/IO_0*%
X245015000Y-67640000D03*
%TO.P,MOD1,26,IO4*%
%TO.N,unconnected-(MOD1-IO4-Pad26)*%
X245015000Y-66370000D03*
%TO.P,MOD1,27,IO16*%
%TO.N,unconnected-(MOD1-IO16-Pad27)*%
X245015000Y-65100000D03*
%TO.P,MOD1,28,IO17*%
%TO.N,unconnected-(MOD1-IO17-Pad28)*%
X245015000Y-63830000D03*
%TO.P,MOD1,29,IO5*%
%TO.N,CS*%
X245015000Y-62560000D03*
%TO.P,MOD1,30,IO18*%
%TO.N,SCK*%
X245015000Y-61290000D03*
%TO.P,MOD1,31,IO19*%
%TO.N,MISO*%
X245015000Y-60020000D03*
%TO.P,MOD1,32,NC*%
%TO.N,unconnected-(MOD1-NC-Pad32)*%
X245015000Y-58750000D03*
%TO.P,MOD1,33,IO21*%
%TO.N,I2C1_SDA*%
X245015000Y-57480000D03*
%TO.P,MOD1,34,RXD0*%
%TO.N,Net-(MOD1-RXD0)*%
X245015000Y-56210000D03*
%TO.P,MOD1,35,TXD0*%
%TO.N,Net-(MOD1-TXD0)*%
X245015000Y-54940000D03*
%TO.P,MOD1,36,IO22*%
%TO.N,I2C1_SCL*%
X245015000Y-53670000D03*
%TO.P,MOD1,37,IO23*%
%TO.N,MOSI*%
X245015000Y-52400000D03*
%TO.P,MOD1,38,GND*%
%TO.N,GND*%
X245015000Y-51130000D03*
D40*
%TO.P,MOD1,39,GND*%
X235515000Y-57630000D03*
%TD*%
D15*
%TO.P,C32,1*%
%TO.N,Net-(U6-OUT)*%
X250875000Y-66425000D03*
%TO.P,C32,2*%
%TO.N,SGN_OUT*%
X250875000Y-67975000D03*
%TD*%
D18*
%TO.P,FB2,1*%
%TO.N,Net-(IC1-VCC)*%
X239700000Y-80450000D03*
%TO.P,FB2,2*%
%TO.N,+3.3V*%
X239700000Y-78800000D03*
%TD*%
D17*
%TO.P,D8,1,K*%
%TO.N,GND*%
X235300000Y-84600000D03*
%TO.P,D8,2,A*%
%TO.N,Net-(D8-A)*%
X237175000Y-84600000D03*
%TD*%
D41*
%TO.P,IC1,1,VCC*%
%TO.N,Net-(IC1-VCC)*%
X243694000Y-78546000D03*
%TO.P,IC1,2,NRESET*%
%TO.N,unconnected-(IC1-NRESET-Pad2)*%
X243694000Y-80046000D03*
%TO.P,IC1,3,GND_1*%
%TO.N,GND*%
X243694000Y-81546000D03*
%TO.P,IC1,4,VBACKUP*%
%TO.N,GPS_VBACKUP*%
X243694000Y-83046000D03*
%TO.P,IC1,5,3D-FIX*%
%TO.N,/GPS_FIX*%
X243694000Y-84546000D03*
%TO.P,IC1,6,NC_1*%
%TO.N,unconnected-(IC1-NC_1-Pad6)*%
X243694000Y-86046000D03*
%TO.P,IC1,7,NC_2*%
%TO.N,unconnected-(IC1-NC_2-Pad7)*%
X243694000Y-87546000D03*
%TO.P,IC1,8,GND_2*%
%TO.N,GND*%
X243694000Y-89046000D03*
%TO.P,IC1,9,TX*%
%TO.N,GPS_RX*%
X243694000Y-90546000D03*
%TO.P,IC1,10,RX*%
%TO.N,GPS_TX*%
X243694000Y-92046000D03*
%TO.P,IC1,11,EX_ANT*%
%TO.N,Net-(AE1-A)*%
X259694000Y-92046000D03*
%TO.P,IC1,12,GND_3*%
%TO.N,GND*%
X259694000Y-90546000D03*
%TO.P,IC1,13,1PPS*%
%TO.N,GPS_PPS*%
X259694000Y-89046000D03*
%TO.P,IC1,14,RTCM*%
%TO.N,unconnected-(IC1-RTCM-Pad14)*%
X259694000Y-87546000D03*
%TO.P,IC1,15,NC_3*%
%TO.N,unconnected-(IC1-NC_3-Pad15)*%
X259694000Y-86046000D03*
%TO.P,IC1,16,NC_4*%
%TO.N,unconnected-(IC1-NC_4-Pad16)*%
X259694000Y-84546000D03*
%TO.P,IC1,17,NC_5*%
%TO.N,unconnected-(IC1-NC_5-Pad17)*%
X259694000Y-83046000D03*
%TO.P,IC1,18,NC_6*%
%TO.N,unconnected-(IC1-NC_6-Pad18)*%
X259694000Y-81546000D03*
%TO.P,IC1,19,GND_4*%
%TO.N,GND*%
X259694000Y-80046000D03*
%TO.P,IC1,20,NC_7*%
%TO.N,unconnected-(IC1-NC_7-Pad20)*%
X259694000Y-78546000D03*
%TD*%
D42*
%TO.P,J6,1,Pin_1*%
%TO.N,Net-(D5-A)*%
X183800000Y-87650000D03*
D43*
%TO.P,J6,2,Pin_2*%
%TO.N,GND*%
X183800000Y-90150000D03*
%TD*%
D14*
%TO.P,C14,1*%
%TO.N,+3.3V*%
X215200000Y-53200000D03*
%TO.P,C14,2*%
%TO.N,GND*%
X213650000Y-53200000D03*
%TD*%
D10*
%TO.P,C8,1*%
%TO.N,GND*%
X258900000Y-58225000D03*
%TO.P,C8,2*%
%TO.N,+3.3V*%
X258900000Y-56675000D03*
%TD*%
D16*
%TO.P,R13,1*%
%TO.N,+3.3V*%
X252525000Y-55300000D03*
%TO.P,R13,2*%
%TO.N,I2C1_SCL*%
X250875000Y-55300000D03*
%TD*%
D14*
%TO.P,C7,1*%
%TO.N,OSC_OUT*%
X197695000Y-61000000D03*
%TO.P,C7,2*%
%TO.N,GND*%
X196145000Y-61000000D03*
%TD*%
D44*
%TO.P,R12,1*%
%TO.N,BUZZER*%
X215850000Y-70875000D03*
%TO.P,R12,2*%
%TO.N,Net-(Q1-B)*%
X215850000Y-69050000D03*
%TD*%
D14*
%TO.P,C21,1*%
%TO.N,Net-(U4-XIN32)*%
X197175000Y-66750000D03*
%TO.P,C21,2*%
%TO.N,GND*%
X195625000Y-66750000D03*
%TD*%
D10*
%TO.P,C29,1*%
%TO.N,+3.3V*%
X237900000Y-80375000D03*
%TO.P,C29,2*%
%TO.N,GND*%
X237900000Y-78825000D03*
%TD*%
D28*
%TO.P,R28,1*%
%TO.N,Net-(U4-COM3)*%
X206037500Y-75025000D03*
%TO.P,R28,2*%
%TO.N,GND*%
X206037500Y-76675000D03*
%TD*%
D14*
%TO.P,C17,1*%
%TO.N,+3.3V*%
X216475000Y-92600000D03*
%TO.P,C17,2*%
%TO.N,GND*%
X214925000Y-92600000D03*
%TD*%
D45*
%TO.P,J5,1,VBUS*%
%TO.N,unconnected-(J5-VBUS-Pad1)*%
X220900000Y-49300000D03*
%TO.P,J5,2,D-*%
%TO.N,Net-(J5-D-)*%
X220250000Y-49300000D03*
%TO.P,J5,3,D+*%
%TO.N,Net-(J5-D+)*%
X219600000Y-49300000D03*
%TO.P,J5,4,ID*%
%TO.N,GND*%
X218950000Y-49300000D03*
%TO.P,J5,5,GND*%
X218300000Y-49300000D03*
D46*
%TO.P,J5,6,Shield*%
X223475000Y-45450000D03*
D47*
X223325000Y-49250000D03*
X215875000Y-49250000D03*
D46*
X215725000Y-45450000D03*
%TD*%
D15*
%TO.P,C13,1*%
%TO.N,+3.3V*%
X211400000Y-64025000D03*
%TO.P,C13,2*%
%TO.N,GND*%
X211400000Y-65575000D03*
%TD*%
D10*
%TO.P,C4,1*%
%TO.N,/EN*%
X209100000Y-47925000D03*
%TO.P,C4,2*%
%TO.N,GND*%
X209100000Y-46375000D03*
%TD*%
D28*
%TO.P,R1,1*%
%TO.N,+3.3V*%
X211000000Y-46250000D03*
%TO.P,R1,2*%
%TO.N,/EN*%
X211000000Y-47900000D03*
%TD*%
D16*
%TO.P,R9,1*%
%TO.N,LED2*%
X192525000Y-61485000D03*
%TO.P,R9,2*%
%TO.N,Net-(D3-A)*%
X190875000Y-61485000D03*
%TD*%
D14*
%TO.P,C10,1*%
%TO.N,GND*%
X225475000Y-59200000D03*
%TO.P,C10,2*%
%TO.N,+3.3V*%
X223925000Y-59200000D03*
%TD*%
D35*
%TO.P,C22,1*%
%TO.N,+3.3V*%
X199350000Y-82400000D03*
%TO.P,C22,2*%
%TO.N,GND*%
X202050000Y-82400000D03*
%TD*%
D16*
%TO.P,R35,1*%
%TO.N,/GPS_FIX*%
X240625000Y-84600000D03*
%TO.P,R35,2*%
%TO.N,Net-(D8-A)*%
X238975000Y-84600000D03*
%TD*%
D42*
%TO.P,J3,1,Pin_1*%
%TO.N,Net-(J3-Pin_1)*%
X183800000Y-75500000D03*
D43*
%TO.P,J3,2,Pin_2*%
%TO.N,Net-(D5-K)*%
X183800000Y-78000000D03*
%TD*%
D18*
%TO.P,R2,1*%
%TO.N,Net-(C3-Pad2)*%
X247300000Y-74225000D03*
%TO.P,R2,2*%
%TO.N,SGN_FILTER*%
X247300000Y-72575000D03*
%TD*%
D13*
%TO.P,C16,1*%
%TO.N,GND*%
X214925000Y-90800000D03*
%TO.P,C16,2*%
%TO.N,+3.3V*%
X216475000Y-90800000D03*
%TD*%
D14*
%TO.P,C6,1*%
%TO.N,OSC_IN*%
X197695000Y-52500000D03*
%TO.P,C6,2*%
%TO.N,GND*%
X196145000Y-52500000D03*
%TD*%
D15*
%TO.P,C28,1*%
%TO.N,+3.3V*%
X236100000Y-78825000D03*
%TO.P,C28,2*%
%TO.N,GND*%
X236100000Y-80375000D03*
%TD*%
D10*
%TO.P,C27,1*%
%TO.N,Net-(U4-CAP)*%
X209037500Y-72125000D03*
%TO.P,C27,2*%
%TO.N,GND*%
X209037500Y-70575000D03*
%TD*%
D17*
%TO.P,D2,1,K*%
%TO.N,GND*%
X187062500Y-56355000D03*
%TO.P,D2,2,A*%
%TO.N,Net-(D2-A)*%
X188937500Y-56355000D03*
%TD*%
D15*
%TO.P,C2,1*%
%TO.N,NRST*%
X219700000Y-60425000D03*
%TO.P,C2,2*%
%TO.N,GND*%
X219700000Y-61975000D03*
%TD*%
D16*
%TO.P,R8,1*%
%TO.N,+3.3V*%
X208400000Y-66600000D03*
%TO.P,R8,2*%
%TO.N,I2C2_SCL*%
X206750000Y-66600000D03*
%TD*%
D32*
%TO.P,R32,1*%
%TO.N,VDD*%
X204537500Y-89000000D03*
%TO.P,R32,2*%
%TO.N,Net-(D7-A)*%
X206362500Y-89000000D03*
%TD*%
D48*
%TO.P,F1,1*%
%TO.N,VDD*%
X188500000Y-74412500D03*
%TO.P,F1,2*%
%TO.N,Net-(J3-Pin_1)*%
X188500000Y-79087500D03*
%TD*%
D17*
%TO.P,D7,1,K*%
%TO.N,GND*%
X204552500Y-91200000D03*
%TO.P,D7,2,A*%
%TO.N,Net-(D7-A)*%
X206427500Y-91200000D03*
%TD*%
D49*
%TO.P,L2,1*%
%TO.N,Net-(FB3-Pad2)*%
X253312500Y-62600000D03*
%TO.P,L2,2*%
%TO.N,Net-(L2-Pad2)*%
X254887500Y-62600000D03*
%TD*%
D10*
%TO.P,C5,1*%
%TO.N,GND*%
X245600000Y-74175000D03*
%TO.P,C5,2*%
%TO.N,SGN_FILTER*%
X245600000Y-72625000D03*
%TD*%
D50*
%TO.P,AE1,1,A*%
%TO.N,Net-(AE1-A)*%
X262150000Y-91075000D03*
D51*
%TO.P,AE1,2,Shield*%
%TO.N,GND*%
X263675000Y-89600000D03*
X263675000Y-92550000D03*
%TD*%
D11*
%TO.P,R10,1*%
%TO.N,+3.3V*%
X202950000Y-66600000D03*
%TO.P,R10,2*%
%TO.N,I2C2_SDA*%
X204600000Y-66600000D03*
%TD*%
D16*
%TO.P,R7,1*%
%TO.N,LED1*%
X192525000Y-56355000D03*
%TO.P,R7,2*%
%TO.N,Net-(D2-A)*%
X190875000Y-56355000D03*
%TD*%
D28*
%TO.P,R17,1*%
%TO.N,Net-(U3-SDO)*%
X218500000Y-87275000D03*
%TO.P,R17,2*%
%TO.N,GND*%
X218500000Y-88925000D03*
%TD*%
D10*
%TO.P,C31,1*%
%TO.N,Net-(AE2-A)*%
X258675000Y-67875000D03*
%TO.P,C31,2*%
%TO.N,Net-(U6-IN)*%
X258675000Y-66325000D03*
%TD*%
D52*
%TO.P,BZ1,1,-*%
%TO.N,VDD*%
X217900000Y-81100000D03*
D53*
%TO.P,BZ1,2,+*%
%TO.N,Net-(BZ1-+)*%
X217900000Y-76100000D03*
%TD*%
D15*
%TO.P,C18,1*%
%TO.N,+3.3V*%
X212600000Y-87425000D03*
%TO.P,C18,2*%
%TO.N,GND*%
X212600000Y-88975000D03*
%TD*%
D54*
%TO.P,L3,1*%
%TO.N,Net-(L2-Pad2)*%
X254887500Y-64300000D03*
%TO.P,L3,2*%
%TO.N,Net-(U6-OUT)*%
X253312500Y-64300000D03*
%TD*%
D15*
%TO.P,C3,1*%
%TO.N,SGN_OUT*%
X250900000Y-72625000D03*
%TO.P,C3,2*%
%TO.N,Net-(C3-Pad2)*%
X250900000Y-74175000D03*
%TD*%
D55*
%TO.P,J1,1,Pin_1*%
%TO.N,+3.3V*%
X262200000Y-55950000D03*
D56*
%TO.P,J1,2,Pin_2*%
%TO.N,/UART_RXD0*%
X262200000Y-53450000D03*
%TO.P,J1,3,Pin_3*%
%TO.N,/UART_TXD0*%
X262200000Y-50950000D03*
%TO.P,J1,4,Pin_4*%
%TO.N,GND*%
X262200000Y-48450000D03*
%TD*%
D28*
%TO.P,R16,1*%
%TO.N,Net-(J5-D+)*%
X219000000Y-51950000D03*
%TO.P,R16,2*%
%TO.N,USB+*%
X219000000Y-53600000D03*
%TD*%
D57*
%TO.P,U3,1,GND*%
%TO.N,GND*%
X214775000Y-88975000D03*
%TO.P,U3,2,CSB*%
%TO.N,+3.3V*%
X214775000Y-88325000D03*
%TO.P,U3,3,SDI*%
%TO.N,I2C2_SDA*%
X214775000Y-87675000D03*
%TO.P,U3,4,SCK*%
%TO.N,I2C2_SCL*%
X214775000Y-87025000D03*
%TO.P,U3,5,SDO*%
%TO.N,Net-(U3-SDO)*%
X216825000Y-87025000D03*
%TO.P,U3,6,VDDIO*%
%TO.N,+3.3V*%
X216825000Y-87675000D03*
%TO.P,U3,7,GND*%
%TO.N,GND*%
X216825000Y-88325000D03*
%TO.P,U3,8,VDD*%
%TO.N,+3.3V*%
X216825000Y-88975000D03*
%TD*%
D58*
%TO.P,J2,1,Pin_1*%
%TO.N,+3.3V*%
X193500000Y-48200000D03*
D59*
%TO.P,J2,2,Pin_2*%
%TO.N,SW_CLK*%
X191000000Y-48200000D03*
%TO.P,J2,3,Pin_3*%
%TO.N,SW_DIO*%
X188500000Y-48200000D03*
%TO.P,J2,4,Pin_4*%
%TO.N,GND*%
X186000000Y-48200000D03*
%TD*%
D16*
%TO.P,R11,1*%
%TO.N,LED3*%
X192525000Y-67025000D03*
%TO.P,R11,2*%
%TO.N,Net-(D4-A)*%
X190875000Y-67025000D03*
%TD*%
D60*
%TO.P,D5,1,K*%
%TO.N,Net-(D5-K)*%
X190200000Y-86350000D03*
%TO.P,D5,2,A*%
%TO.N,Net-(D5-A)*%
X190200000Y-90750000D03*
%TD*%
D32*
%TO.P,R20,1*%
%TO.N,VDD*%
X193687500Y-78550000D03*
%TO.P,R20,2*%
%TO.N,BAT_LEVEL*%
X195512500Y-78550000D03*
%TD*%
D27*
%TO.P,SW1,1,1*%
%TO.N,GND*%
X250600000Y-46200000D03*
X254750000Y-46200000D03*
%TO.P,SW1,2,2*%
%TO.N,/IO_0*%
X250600000Y-48350000D03*
X254725000Y-48350000D03*
%TD*%
D11*
%TO.P,R4,1*%
%TO.N,Net-(MOD1-TXD0)*%
X257075000Y-53450000D03*
%TO.P,R4,2*%
%TO.N,/UART_RXD0*%
X258725000Y-53450000D03*
%TD*%
D28*
%TO.P,R3,1*%
%TO.N,GND*%
X249100000Y-72575000D03*
%TO.P,R3,2*%
%TO.N,Net-(C3-Pad2)*%
X249100000Y-74225000D03*
%TD*%
D61*
%TO.N,USB+*%
X219000000Y-53600000D02*
X217325000Y-53600000D01*
X217325000Y-53600000D02*
X217300000Y-53625000D01*
%TD*%
D62*
X251964000Y-84574000D03*
X183800000Y-87650000D03*
X183800000Y-90150000D03*
X222100000Y-48200000D03*
X217100000Y-48200000D03*
D63*
X223475000Y-45450000D03*
D64*
X223325000Y-49250000D03*
X215875000Y-49250000D03*
D63*
X215725000Y-45450000D03*
D62*
X183800000Y-75500000D03*
X183800000Y-78000000D03*
X217900000Y-81100000D03*
X217900000Y-76100000D03*
X262200000Y-55950000D03*
X262200000Y-53450000D03*
X262200000Y-50950000D03*
X262200000Y-48450000D03*
X193500000Y-48200000D03*
X191000000Y-48200000D03*
X188500000Y-48200000D03*
X186000000Y-48200000D03*
X235725000Y-91000000D03*
X227725000Y-91000000D03*
M02*
